<svg xmlns="http://www.w3.org/2000/svg" viewBox="0 0 360 360"><defs><style>.a,.b{fill:#fff;}.a{fill-rule:evenodd;}</style></defs><title>ic_drills</title><path class="a" d="M181,23V48.63C117,48.71,56,58.76,1,77.08V52A583.78,583.78,0,0,1,181,23Z"/><rect class="b" x="310.62" y="265.48" width="27.99" height="27.99"/><rect class="b" x="311" y="346.01" width="27.99" height="13.99"/><rect class="b" x="21.01" y="346.01" width="27.99" height="13.99"/><rect class="b" x="21.4" y="265.48" width="27.99" height="27.99"/><path class="a" d="M180,106.59c-72.14,0-131,58.47-131,130.61v.29A129.71,129.71,0,0,0,68.76,306h36a105.88,105.88,0,0,1-19.35-40.52A117.71,117.71,0,0,1,82.12,242c-.07-1.49-.12-3-.12-4.51v-.29c0-58,40-102.63,98-102.63,56.49,0,95.94,42.43,97.9,98.24.06,1.45.12,2.92.12,4.39v.29a118.21,118.21,0,0,1-3.35,28A105.89,105.89,0,0,1,255.29,306h35.93A129.63,129.63,0,0,0,311,237.49v-.29C311,165.06,252.12,106.59,180,106.59Z"/><rect class="b" x="49" y="236" width="33" height="124"/><rect class="b" x="278" y="236" width="33" height="124"/><rect class="b" x="82.14" y="232.81" width="195.82" height="32.67"/><path class="a" d="M360,51.93V77.06c-54-18.3-114-28.35-179-28.43V23C245,23.21,305,33.53,360,51.93Z"/><path class="a" d="M291.72,169H255.79c9.06,11,15.44,25.15,19.11,40.32A116.39,116.39,0,0,1,278,237.1v.29c0,1.47.07,2.94,0,4.39C276,297.59,236.72,340,180.23,340,122.27,340,82,295.35,82,237.39v-.29c0-1.51.3-3,.37-4.51a115.71,115.71,0,0,1,3.5-23.27C89.54,194.15,96.16,180,105.22,169h-36A126.31,126.31,0,0,0,49,237.1v.29C49,293.68,84.83,341.64,134.85,360h90.29c50-18.36,85.86-66.32,85.86-122.61v-.29C311,212,304.08,188,291.72,169Z"/><polygon class="b" points="216.77 225.8 199.8 242.77 180 222.97 160.2 242.77 143.23 225.8 163.03 206 143.23 186.2 160.2 169.23 180 189.03 199.8 169.23 216.77 186.2 196.97 206 216.77 225.8"/></svg>