<svg xmlns="http://www.w3.org/2000/svg" viewBox="0 0 360 360"><defs><style>.a,.b{fill:#fff;}.b{fill-rule:evenodd;}</style></defs><title>ic_drills</title><rect class="a" y="310" width="360" height="13"/><rect class="a" y="131" width="12" height="192"/><rect class="a" x="348" y="131" width="12" height="192"/><path class="b" d="M180,36.51v11C103.68,47.58,39,80,12,131H0C27.84,76,98.66,36.77,180,36.51Z"/><rect class="a" x="106" y="253.49" width="20" height="16"/><rect class="a" x="234" y="253.49" width="20" height="16"/><rect class="a" x="112" y="223.49" width="12" height="12"/><rect class="a" x="236" y="223.49" width="12" height="12"/><rect class="a" x="236" y="193.49" width="12" height="12"/><rect class="a" x="236" y="163.5" width="12" height="12"/><rect class="a" x="112" y="163.5" width="12" height="12"/><rect class="a" x="112" y="193.5" width="12" height="12"/><path class="b" d="M180,95.49a56,56,0,1,0,56,56A56,56,0,0,0,180,95.49Zm0,101c-24.85,0-42-20.14-42-45s17.15-44,42-44,42,19.15,42,44S204.85,196.48,180,196.48Z"/><rect class="a" x="124" y="151.49" width="14" height="159"/><rect class="a" x="222" y="151.49" width="14" height="159"/><rect class="a" x="138.04" y="149.49" width="83.96" height="14.01"/><path class="b" d="M180,268.24a14.52,14.52,0,1,0,14.51,14.52A14.52,14.52,0,0,0,180,268.24Zm0,21.14a6.63,6.63,0,1,1,6.62-6.62A6.62,6.62,0,0,1,180,289.39Z"/><rect class="a" x="152" y="293.49" width="56" height="8"/><path class="b" d="M209.75,276.14a30.74,30.74,0,0,1-.17,3.2l-7.33-2.09q0-.55,0-1.11a22.28,22.28,0,1,0-44.56,0c0,.37,0,.73,0,1.1l-7.33,2.09a30.53,30.53,0,0,1-.17-3.19,29.75,29.75,0,0,1,59.5,0Z"/><line class="a" x1="150.42" y1="279.32" x2="150.25" y2="279.37"/><line class="a" x1="209.73" y1="279.37" x2="209.58" y2="279.33"/><path class="b" d="M180,36.51v11C256,47.58,321,80,348,131h12C332.16,76,261,36.77,180,36.51Z"/></svg>