<svg xmlns="http://www.w3.org/2000/svg" xmlns:xlink="http://www.w3.org/1999/xlink" viewBox="0 0 500 940"><defs><style>.a{fill:none;}.b{clip-path:url(#a);}.c{clip-path:url(#b);}.d{fill:#d09551;}.e{fill:#d29752;}.f{fill:#d29853;}.g{fill:#d29955;}.h{clip-path:url(#c);}.i{fill:#d09752;}.j{fill:#d29a56;}.k{fill:#d29a57;}.l{fill:#d39b58;}.m{fill:#d59e5a;}.n{clip-path:url(#d);}.o{fill:#d29b57;}.p{fill:#d39b59;}.q{fill:#d59e5b;}.r{fill:#d59f5c;}.s{clip-path:url(#e);}.t{fill:#d6a05d;}.u{fill:#d6a05e;}.v{fill:#d7a15f;}.w{fill:#d7a260;}.x{clip-path:url(#f);}.y{fill:#d69f5d;}.z{fill:#d6a15f;}.aa{fill:#d7a361;}.ab{fill:#d9a463;}.ac{fill:#d9a564;}.ad{clip-path:url(#g);}.ae{fill:#d9a562;}.af{fill:#d9a563;}.ag{fill:#d9a664;}.ah{fill:#d9a665;}.ai{fill:#daa866;}.aj{clip-path:url(#h);}.ak{fill:#d9a764;}.al{fill:#daa967;}.am{fill:#daaa68;}.an{fill:#dbaa69;}.ao{fill:#dbac6a;}.ap{clip-path:url(#i);}.aq{fill:#dbab69;}.ar{fill:#dbab6a;}.as{fill:#dbac6b;}.at{fill:#dcac6c;}.au{fill:#dcae6d;}.av{clip-path:url(#j);}.aw{fill:#d59f5d;}.ax{fill:#d8a562;}.ay{fill:#dcae6e;}.az{fill:#ddaf6f;}.ba{fill:#dcb070;}.bb{clip-path:url(#k);}.bc{clip-path:url(#l);}.bd{clip-path:url(#m);}.be{clip-path:url(#n);}.bf{clip-path:url(#o);}.bg{clip-path:url(#p);}.bh{clip-path:url(#q);}.bi{clip-path:url(#r);}.bj{clip-path:url(#s);}.bk{clip-path:url(#t);}</style><clipPath id="a"><rect class="a" x="580" y="1020" width="500" height="940"/></clipPath><clipPath id="b"><path class="a" d="M607.55,1993.55c-28,0-50.71-32.2-50.71-71.92V1060.85c0-39.72,22.7-71.92,50.71-71.92h446c28,0,50.71,32.2,50.71,71.92v860.79c0,39.71-22.7,71.92-50.71,71.92h-446"/></clipPath><clipPath id="c"><path class="a" d="M610.08,1987.83c-27.69,0-50.13-31.83-50.13-71.1v-851c0-39.27,22.45-71.1,50.13-71.1H1051c27.69,0,50.13,31.83,50.13,71.1v851c0,39.26-22.45,71.1-50.13,71.1H610.08"/></clipPath><clipPath id="d"><path class="a" d="M612.62,1982.11c-27.37,0-49.56-31.47-49.56-70.28V1070.65c0-38.82,22.19-70.28,49.56-70.28h435.84c27.37,0,49.56,31.47,49.56,70.28v841.19c0,38.81-22.19,70.28-49.56,70.28H612.62"/></clipPath><clipPath id="e"><path class="a" d="M615.16,1976.39c-27.05,0-49-31.1-49-69.46V1075.55c0-38.36,21.93-69.46,49-69.46h430.76c27.05,0,49,31.1,49,69.46v831.39c0,38.36-21.93,69.46-49,69.46H615.16"/></clipPath><clipPath id="f"><path class="a" d="M617.7,1970.67c-26.73,0-48.4-30.73-48.4-68.64V1080.44c0-37.91,21.67-68.64,48.4-68.64h425.69c26.73,0,48.4,30.73,48.4,68.64V1902c0,37.91-21.67,68.64-48.4,68.64H617.7"/></clipPath><clipPath id="g"><path class="a" d="M620.24,1965c-26.41,0-47.83-30.36-47.83-67.82V1085.34c0-37.46,21.41-67.82,47.83-67.82h420.61c26.41,0,47.82,30.36,47.82,67.82v811.79c0,37.46-21.41,67.82-47.82,67.82H620.24"/></clipPath><clipPath id="h"><path class="a" d="M622.78,1959.24c-26.1,0-47.25-30-47.25-67v-802c0-37,21.15-67,47.25-67h415.53c26.09,0,47.25,30,47.25,67v802c0,37-21.15,67-47.25,67H622.78"/></clipPath><clipPath id="i"><path class="a" d="M625.32,1953.52c-25.78,0-46.67-29.63-46.67-66.18V1095.14c0-36.55,20.89-66.18,46.67-66.18h410.46c25.78,0,46.67,29.63,46.67,66.18v792.19c0,36.55-20.89,66.18-46.67,66.18H625.32"/></clipPath><clipPath id="j"><path class="a" d="M627.86,1947.8c-25.46,0-46.09-29.26-46.09-65.36V1100c0-36.1,20.64-65.36,46.09-65.36h405.38c25.46,0,46.09,29.27,46.09,65.36v782.39c0,36.1-20.63,65.36-46.09,65.36H627.86"/></clipPath><clipPath id="k"><rect class="a" y="1020" width="500" height="940"/></clipPath><clipPath id="l"><path class="a" d="M27.55,1993.55c-28,0-50.71-32.2-50.71-71.92V1060.85c0-39.72,22.7-71.92,50.71-71.92h446c28,0,50.71,32.2,50.71,71.92v860.79c0,39.71-22.7,71.92-50.71,71.92h-446"/></clipPath><clipPath id="m"><path class="a" d="M30.08,1987.83C2.4,1987.83-20,1956-20,1916.73v-851c0-39.27,22.45-71.1,50.13-71.1H471c27.69,0,50.13,31.83,50.13,71.1v851c0,39.26-22.45,71.1-50.13,71.1H30.08"/></clipPath><clipPath id="n"><path class="a" d="M32.62,1982.11c-27.37,0-49.56-31.47-49.56-70.28V1070.65c0-38.82,22.19-70.28,49.56-70.28H468.47c27.37,0,49.56,31.47,49.56,70.28v841.19c0,38.81-22.19,70.28-49.56,70.28H32.62"/></clipPath><clipPath id="o"><path class="a" d="M35.16,1976.39c-27.05,0-49-31.1-49-69.46V1075.55c0-38.36,21.93-69.46,49-69.46H465.93c27.05,0,49,31.1,49,69.46v831.39c0,38.36-21.93,69.46-49,69.46H35.16"/></clipPath><clipPath id="p"><path class="a" d="M37.7,1970.67c-26.73,0-48.4-30.73-48.4-68.64V1080.44c0-37.91,21.67-68.64,48.4-68.64H463.39c26.73,0,48.4,30.73,48.4,68.64V1902c0,37.91-21.67,68.64-48.4,68.64H37.7"/></clipPath><clipPath id="q"><path class="a" d="M40.24,1965c-26.41,0-47.83-30.36-47.83-67.82V1085.34c0-37.46,21.41-67.82,47.83-67.82H460.85c26.41,0,47.82,30.36,47.82,67.82v811.79c0,37.46-21.41,67.82-47.82,67.82H40.24"/></clipPath><clipPath id="r"><path class="a" d="M42.78,1959.24c-26.1,0-47.25-30-47.25-67v-802c0-37,21.15-67,47.25-67H458.31c26.09,0,47.25,30,47.25,67v802c0,37-21.15,67-47.25,67H42.78"/></clipPath><clipPath id="s"><path class="a" d="M45.32,1953.52c-25.78,0-46.67-29.63-46.67-66.18V1095.14c0-36.55,20.89-66.18,46.67-66.18H455.77c25.78,0,46.67,29.63,46.67,66.18v792.19c0,36.55-20.89,66.18-46.67,66.18H45.32"/></clipPath><clipPath id="t"><path class="a" d="M47.86,1947.8c-25.46,0-46.09-29.26-46.09-65.36V1100c0-36.1,20.64-65.36,46.09-65.36H453.23c25.46,0,46.09,29.27,46.09,65.36v782.39c0,36.1-20.63,65.36-46.09,65.36H47.86"/></clipPath></defs><title>basketball_court_ncaa</title><g class="b"><g class="c"><path class="d" d="M1586.69,1488.74c1,592-337,1073.52-754.48,1074.89s-757-478-758-1069.93,337-1073.52,754.48-1074.89,757,478,758,1069.93"/><path class="e" d="M1478.66,1489.09c.83,507.4-288.89,920.16-646.7,921.34s-648.87-409.68-649.7-917.08S471.15,573.18,829,572s648.87,409.68,649.7,917.08"/><path class="f" d="M1370.63,1489.45c.69,422.84-240.74,766.8-538.91,767.78S291,1915.83,290.3,1493,531,726.19,829.21,725.21s540.73,341.4,541.42,764.23"/><path class="g" d="M1262.83,1489.8c.55,338.27-192.59,613.44-431.13,614.23s-432.58-273.12-433.13-611.39S591.16,879.2,829.7,878.41s432.58,273.12,433.13,611.39"/></g><g class="h"><path class="d" d="M1578.08,1488.76c1,585.23-333.2,1061.3-745.89,1062.65S83.8,2078.9,82.84,1493.67,416,432.37,828.73,431s748.4,472.51,749.35,1057.75"/><path class="i" d="M1528.24,1488.93c.89,546.21-311,990.55-696.16,991.81s-698.5-441-699.39-987.23S443.67,503,828.85,501.7s698.5,441,699.39,987.23"/><path class="f" d="M1478.64,1489.09c.83,507.2-288.78,919.79-646.44,921s-648.61-409.51-649.44-916.71,288.78-919.79,646.44-921,648.61,409.51,649.44,916.71"/><path class="g" d="M1428.56,1489.26c.76,468.18-266.56,849-596.71,850.12s-598.72-378-599.48-846.2,266.56-849,596.71-850.12,598.72,378,599.48,846.2"/><path class="j" d="M1379,1489.42c.7,429.17-244.35,778.29-547,779.28S283.15,1922.19,282.45,1493s244.35-778.29,547-779.28,548.82,346.51,549.52,775.68"/><path class="k" d="M1328.87,1489.58c.64,390.15-222.14,707.53-497.26,708.44S332.68,1883,332,1492.86,554.18,785.32,829.31,784.42s498.93,315,499.57,705.16"/><path class="l" d="M1279,1489.75c.57,351.14-199.92,636.78-447.53,637.59s-449-283.51-449.61-634.65S581.81,855.91,829.42,855.1s449,283.51,449.61,634.65"/><path class="m" d="M1229.43,1489.91c.51,312.12-177.71,566-397.81,566.75s-399.14-252-399.65-564.13,177.71-566,397.81-566.75,399.14,252,399.65,564.13"/></g><g class="n"><path class="d" d="M1569.71,1488.79c.94,578.49-329.37,1049.08-737.3,1050.42S92.63,2072.14,91.69,1493.65,421.06,444.57,829,443.23s739.78,467.07,740.72,1045.57"/><path class="i" d="M1537.34,1488.9c.9,553.34-315,1003.47-705.24,1004.75S124.48,2046.88,123.58,1493.54s315-1003.47,705.24-1004.75,707.61,446.77,708.52,1000.11"/><path class="f" d="M1505.21,1489c.86,528.19-300.73,957.86-673.19,959.08s-675.45-426.46-676.31-954.65S456.44,535.58,828.9,534.36,1504.35,960.82,1505.21,1489"/><path class="g" d="M1473.32,1489.11c.82,503-286.41,912.24-641.13,913.41S188.9,1996.37,188.08,1493.33,474.49,581.09,829.21,579.92s643.29,406.15,644.11,909.19"/><path class="g" d="M1440.95,1489.21c.78,477.88-272.09,866.63-609.07,867.74S220.75,1971.11,220,1493.22,492.06,626.59,829,625.49s611.12,385.84,611.9,863.73"/><path class="j" d="M1408.82,1489.32c.74,452.73-257.76,821-577,822.07s-579-365.54-579.7-818.27,257.76-821,577-822.07,579,365.54,579.7,818.27"/><path class="o" d="M1376.93,1489.43c.7,427.58-243.44,775.41-545,776.4S285.17,1920.59,284.48,1493s243.44-775.41,545-776.4,546.79,345.23,547.49,772.81"/><path class="p" d="M1344.56,1489.53c.66,402.43-229.12,729.79-512.91,730.73S317,1895.34,316.37,1492.91,545.49,763.11,829.27,762.18s514.63,324.92,515.29,727.35"/><path class="m" d="M1312.43,1489.64c.62,377.28-214.8,684.18-480.85,685.06S349.11,1870.08,348.5,1492.8,563.3,808.62,829.35,807.75s482.46,304.61,483.08,681.89"/><path class="q" d="M1280.54,1489.74c.57,352.13-200.48,638.57-448.79,639.39s-450.3-284.31-450.88-636.43S581.35,854.13,829.66,853.31s450.3,284.31,450.88,636.43"/><path class="r" d="M1248.16,1489.85c.53,327-186.16,593-416.74,593.72s-418.14-264-418.67-591,186.16-593,416.74-593.72,418.14,264,418.67,591"/></g><g class="s"><path class="d" d="M1561.1,1488.82C1562,2060.57,1235.57,2525.68,832.39,2527S101.23,2065.37,100.3,1493.62,425.83,456.76,829,455.44s731.16,461.63,732.09,1033.38"/><path class="i" d="M1537.3,1488.9c.9,553.31-315,1003.41-705.2,1004.69s-707.57-446.74-708.48-1000,315-1003.41,705.2-1004.69,707.57,446.74,708.48,1000"/><path class="f" d="M1513.74,1489c.87,534.86-304.53,970-681.7,971.2s-684-431.85-684.86-966.71,304.53-970,681.7-971.2,684,431.85,684.86,966.71"/><path class="g" d="M1490.18,1489.05c.84,516.42-294,936.52-658.19,937.71s-660.4-417-661.24-933.38,294-936.51,658.19-937.71,660.4,417,661.24,933.38"/><path class="g" d="M1466.62,1489.13c.81,498-283.52,903.07-634.68,904.22s-636.82-402.07-637.63-900S477.83,590.24,829,589.09s636.82,402.07,637.63,900"/><path class="j" d="M1443.06,1489.21c.78,479.53-273,869.62-611.18,870.73s-613.23-387.18-614-866.71S490.89,623.61,829,622.5s613.23,387.18,614,866.71"/><path class="l" d="M1419.49,1489.29c.75,461.09-262.52,836.17-587.67,837.24s-589.64-372.28-590.4-833.37S504,657,829.1,655.91s589.64,372.28,590.4,833.37"/><path class="p" d="M1396.17,1489.36c.72,442.65-252,802.73-564.16,803.75s-566.06-357.39-566.78-800,252-802.73,564.16-803.75,566.06,357.39,566.78,800"/><path class="m" d="M1372.61,1489.44c.69,424.2-241.52,769.28-540.66,770.26S289.48,1917.2,288.79,1493,530.31,723.72,829.45,722.74s542.47,342.5,543.17,766.7"/><path class="q" d="M1349.05,1489.52c.66,405.76-231,735.83-517.15,736.77S313,1898.68,312.35,1492.92s231-735.83,517.15-736.77,518.89,327.61,519.55,733.37"/><path class="r" d="M1325.25,1489.59c.63,387.32-220.52,702.39-493.64,703.28s-495.3-312.72-495.93-700S556.19,790.46,829.32,789.56s495.3,312.72,495.93,700"/><path class="t" d="M1301.69,1489.67c.6,368.87-210,668.94-470.14,669.79s-471.72-297.83-472.32-666.7S569.25,823.83,829.37,823s471.72,297.83,472.32,666.7"/><path class="u" d="M1278.13,1489.75c.57,350.43-199.52,635.49-446.63,636.3s-448.13-282.94-448.7-633.36S582.31,857.2,829.42,856.39s448.13,282.94,448.7,633.36"/><path class="v" d="M1254.57,1489.83c.54,332-189,602-423.12,602.81s-424.54-268-425.09-600,189-602,423.12-602.81,424.54,268,425.09,600"/><path class="w" d="M1231,1489.9c.51,313.54-178.52,568.6-399.62,569.32s-401-253.15-401.47-566.69,178.52-568.6,399.62-569.32,401,253.15,401.47,566.69"/></g><g class="x"><path class="d" d="M1552.25,1488.85c.92,565-321.69,1024.63-720.12,1025.94S109.59,2058.6,108.67,1493.59,430.36,469,828.79,467.65s722.54,456.19,723.46,1021.2"/><path class="i" d="M1533.74,1488.91c.9,550.52-313.44,998.36-701.66,999.64s-704-444.49-704.91-995S440.62,495.17,828.83,493.89s704,444.49,704.91,995"/><path class="f" d="M1515.24,1489c.88,536-305.19,972.09-683.19,973.33s-685.49-432.8-686.36-968.83S450.88,521.38,828.88,520.14s685.49,432.8,686.36,968.83"/><path class="g" d="M1497,1489.37c.85,521.55-296.95,945.82-664.73,947s-667-421.1-667.81-942.65,296.95-945.82,664.73-947,667,421.1,667.81,942.65"/><path class="g" d="M1478.22,1489.09c.83,507.06-288.7,919.54-646.26,920.72s-648.43-409.4-649.26-916.46S471.4,573.8,829,572.63s648.43,409.4,649.26,916.46"/><path class="j" d="M1459.71,1489.15c.8,492.57-280.45,893.27-627.8,894.41S202,1985.86,201.21,1493.29,481.66,600,829,598.87s629.91,397.7,630.71,890.28"/><path class="l" d="M1441.21,1489.21c.78,478.09-272.2,867-609.33,868.1s-611.38-386-612.16-864.09,272.2-867,609.33-868.1,611.38,386,612.16,864.09"/><path class="p" d="M1422.7,1489.27c.76,463.6-264,840.72-590.87,841.8S239,1956.76,238.22,1493.16s264-840.72,590.87-841.8,592.85,374.31,593.61,837.91"/><path class="m" d="M1404.43,1489.68c.73,449.11-255.7,814.45-572.4,815.49S257.7,1942.56,257,1493.44,512.67,679,829.37,678s574.33,362.61,575.06,811.72"/><path class="q" d="M1385.69,1489.4c.71,434.62-247.45,788.18-553.94,789.19S275.95,1927.67,275.24,1493,522.69,704.86,829.18,703.86s555.8,350.92,556.51,785.54"/><path class="r" d="M1367.18,1489.46c.69,420.14-239.21,761.91-535.47,762.88s-537.27-339.22-538-759.35S533,731.07,829.22,730.1s537.27,339.22,538,759.35"/><path class="y" d="M1348.67,1489.52c.66,405.65-231,735.63-517,736.57s-518.75-327.52-519.41-733.17,231-735.63,517-736.57,518.75,327.52,519.41,733.17"/><path class="u" d="M1330.16,1489.58c.64,391.16-222.71,709.36-498.54,710.27S331.4,1884,330.76,1492.86,553.47,783.5,829.3,782.59s500.22,315.82,500.86,707"/><path class="z" d="M1311.9,1489.64c.62,376.67-214.46,683.09-480.08,684s-481.69-304.13-482.31-680.8S564,809.71,829.59,808.84s481.69,304.13,482.31,680.8"/><path class="w" d="M1293.15,1489.7c.59,362.19-206.21,656.82-461.62,657.65s-463.17-292.43-463.76-654.62S574,835.92,829.39,835.08s463.17,292.43,463.76,654.62"/><path class="aa" d="M1274.88,1489.76c.57,347.7-198,630.54-443.15,631.35s-444.64-280.73-445.21-628.43,198-630.54,443.15-631.35,444.64,280.73,445.21,628.43"/><path class="ab" d="M1256.13,1489.82c.54,333.21-189.72,604.27-424.69,605s-426.11-269-426.66-602.25,189.72-604.27,424.69-605,426.11,269,426.66,602.25"/><path class="ac" d="M1237.63,1489.88c.52,318.72-181.47,578-406.22,578.74S423.82,1811.28,423.3,1492.56s181.47-578,406.22-578.74,407.59,257.34,408.11,576.06"/></g><g class="ad"><path class="d" d="M1543.64,1488.88c.91,558.27-317.85,1012.41-711.53,1013.7s-713.92-450.75-714.83-1009S435.13,481.15,828.81,479.86s713.92,450.75,714.83,1009"/><path class="i" d="M1528.38,1488.93c.89,546.13-310.94,990.4-696.06,991.67S133.92,2039.64,133,1493.51,444,503.11,829.09,501.84s698.4,440.95,699.29,987.08"/><path class="f" d="M1512.87,1489.32c.87,534-304,968.39-680.59,969.63S149.4,2027.8,148.53,1493.8s304-968.39,680.59-969.63S1512,955.32,1512.87,1489.32"/><path class="g" d="M1497.13,1489C1498,2010.89,1200,2435.41,832,2436.62s-667.36-421.35-668.21-943.21S460.92,547,828.92,545.82,1496.28,967.17,1497.13,1489"/><path class="g" d="M1481.63,1489.08c.83,509.73-290.21,924.37-649.66,925.55S180.13,2003.08,179.3,1493.36,469.51,569,829,567.8s651.84,411.55,652.67,921.28"/><path class="j" d="M1466.12,1489.13c.81,497.59-283.3,902.37-634.19,903.52S195.61,1990.9,194.8,1493.31,478.1,590.94,829,589.79s636.32,401.75,637.13,899.34"/><path class="l" d="M1450.62,1489.18c.79,485.45-276.39,880.36-618.72,881.48s-620.8-392-621.59-877.41S486.7,612.9,829,611.78s620.8,392,621.59,877.41"/><path class="p" d="M1435.36,1489.23c.77,473.32-269.48,858.35-603.25,859.44S226.82,1966.52,226,1493.2,495.53,634.86,829.3,633.76s605.28,382.16,606.05,855.47"/><path class="m" d="M1419.85,1489.28c.75,461.18-262.57,836.34-587.78,837.41s-589.76-372.36-590.51-833.54S504.13,656.82,829.34,655.75s589.76,372.36,590.51,833.54"/><path class="q" d="M1404.11,1489.34c.73,449-255.66,814.33-572.32,815.37s-574.24-362.56-575-811.6S512.48,678.77,829.13,677.73s574.24,362.56,575,811.6"/><path class="r" d="M1388.6,1489.39c.71,436.91-248.75,792.32-556.85,793.33S273,1930,272.32,1493.05,521.07,700.73,829.17,699.72s558.72,352.76,559.43,789.67"/><path class="t" d="M1373.1,1489.44c.69,424.77-241.85,770.31-541.38,771.3s-543.2-343-543.89-767.73S529.67,722.69,829.2,721.71s543.2,343,543.89,767.73"/><path class="u" d="M1357.59,1489.49c.67,412.63-234.94,748.3-525.91,749.26S304,1905.59,303.33,1492.95s234.94-748.3,525.91-749.26,527.68,333.16,528.35,745.8"/><path class="z" d="M1342.33,1489.54c.65,400.5-228,726.29-510.44,727.22S319.73,1893.4,319.07,1492.9s228-726.29,510.44-727.22,512.16,323.36,512.81,723.86"/><path class="w" d="M1326.83,1489.59c.63,388.36-221.12,704.29-495,705.18s-496.64-313.56-497.27-701.93,221.12-704.29,495-705.18,496.64,313.56,497.27,701.93"/><path class="aa" d="M1311.08,1489.64c.61,376.23-214.21,682.28-479.51,683.15S350.45,1869,349.84,1492.8,564,810.52,829.35,809.65s481.12,303.76,481.73,680"/><path class="ae" d="M1295.58,1489.69c.59,364.09-207.3,660.27-464,661.11s-465.6-294-466.19-658.06,207.3-660.27,464-661.11,465.6,294,466.19,658.06"/><path class="af" d="M1280.07,1489.74c.57,352-200.39,638.26-448.57,639.07S381.42,1844.65,380.85,1492.7,581.23,854.44,829.42,853.62s450.08,284.17,450.65,636.12"/><path class="ag" d="M1264.57,1489.79c.55,339.82-193.48,616.25-433.1,617s-434.56-274.37-435.11-614.19,193.48-616.25,433.1-617S1264,1150,1264.57,1489.79"/><path class="ah" d="M1249.31,1489.84c.54,327.68-186.57,594.24-417.64,595s-419-264.57-419.58-592.25,186.57-594.24,417.64-595,419,264.57,419.58,592.25"/><path class="ai" d="M1233.8,1489.9c.52,315.54-179.66,572.23-402.17,573s-403.52-254.77-404-570.31,179.66-572.23,402.17-573,403.52,254.77,404,570.31"/></g><g class="aj"><path class="d" d="M1535,1488.91c.9,551.53-314,1000.19-702.94,1001.47s-705.3-445.31-706.2-996.84,314-1000.19,702.94-1001.47,705.3,445.31,706.2,996.84"/><path class="i" d="M1522,1488.95c.88,541.32-308.2,981.67-689.92,982.92s-692.24-437.06-693.13-978.38,308.2-981.67,689.92-982.92S1521.1,947.63,1522,1488.95"/><path class="f" d="M1508.94,1489c.87,531.11-302.39,963.15-676.91,964.38s-679.18-428.81-680-959.92S454.37,530.3,828.89,529.07s679.18,428.81,680,959.92"/><path class="g" d="M1495.89,1489c.85,520.89-296.57,944.62-663.89,945.83S165.88,2014.3,165,1493.4,461.6,548.78,828.92,547.57,1495,968.14,1495.89,1489"/><path class="g" d="M1482.84,1489.08c.83,510.68-290.76,926.1-650.87,927.28s-653.06-412.32-653.89-923S468.84,567.26,829,566.08s653.06,412.32,653.89,923"/><path class="j" d="M1470,1489.12c.82,500.46-284.94,907.58-637.85,908.74s-640-404.07-640.81-904.54S476.31,585.74,829.22,584.58s640,404.07,640.81,904.54"/><path class="o" d="M1457,1489.16c.8,490.25-279.13,889.06-624.84,890.19s-626.94-395.83-627.74-886.08S483.54,604.22,829.25,603.08,1456.19,998.91,1457,1489.16"/><path class="p" d="M1443.94,1489.21c.78,480-273.31,870.54-611.82,871.65s-613.87-387.58-614.66-867.62S490.77,622.7,829.28,621.59s613.87,387.58,614.66,867.62"/><path class="m" d="M1430.89,1489.25c.77,469.82-267.5,852-598.8,853.1S231.28,1963,230.51,1493.19s267.5-852,598.8-853.1,600.81,379.34,601.58,849.16"/><path class="q" d="M1417.6,1489.29c.75,459.61-261.68,833.49-585.78,834.56s-587.75-371.09-588.5-830.7S505,659.66,829.1,658.59s587.75,371.09,588.5,830.7"/><path class="r" d="M1404.56,1489.33c.73,449.4-255.87,815-572.77,816S257.1,1942.5,256.37,1493.1s255.87-815,572.77-816,574.69,362.84,575.43,812.24"/><path class="t" d="M1391.51,1489.38c.72,439.18-250.05,796.45-559.75,797.46s-561.63-354.6-562.35-793.78S519.46,696.61,829.16,695.6s561.63,354.6,562.35,793.78"/><path class="u" d="M1378.46,1489.42c.7,429-244.24,777.93-546.73,778.92S283.16,1922,282.46,1493,526.7,715.09,829.19,714.1s548.57,346.35,549.27,775.32"/><path class="z" d="M1365.41,1489.46c.68,418.76-238.42,759.4-533.71,760.37S296.19,1911.73,295.51,1493,533.93,733.57,829.22,732.6s535.51,338.1,536.19,756.86"/><path class="w" d="M1352.37,1489.51c.67,408.54-232.61,740.88-520.7,741.83s-522.45-329.86-523.11-738.4,232.61-740.88,520.7-741.83,522.45,329.86,523.11,738.4"/><path class="aa" d="M1339.32,1489.55c.65,398.33-226.79,722.36-507.68,723.28s-509.39-321.61-510-719.94S548.39,770.53,829.28,769.61s509.39,321.61,510,719.94"/><path class="ae" d="M1326.27,1489.59c.63,388.12-221,703.84-494.66,704.74s-496.32-313.36-497-701.48S555.63,789,829.31,788.11s496.32,313.36,497,701.48"/><path class="af" d="M1313.22,1489.63c.62,377.9-215.16,685.32-481.64,686.19s-483.26-305.12-483.88-683S562.86,807.49,829.34,806.61s483.26,305.12,483.88,683"/><path class="ak" d="M1300.42,1489.68c.6,367.69-209.34,666.79-468.63,667.64S361.59,1860.45,361,1492.76,570.33,826,829.61,825.12s470.2,296.87,470.8,664.56"/><path class="ah" d="M1287.37,1489.72c.58,357.47-203.53,648.27-455.61,649.1S374.62,1850.19,374,1492.72s203.53-648.27,455.61-649.1,457.14,288.63,457.72,646.1"/><path class="ai" d="M1274.32,1490.1c.57,347.26-197.71,629.75-442.59,630.55S387.65,1840.28,387.08,1493,584.8,863.27,829.67,862.46s444.08,280.38,444.65,627.64"/><path class="al" d="M1261.27,1489.81c.55,337-191.9,611.23-429.57,612s-431-272.13-431.57-609.18,191.9-611.23,429.57-612,431,272.13,431.57,609.18"/><path class="am" d="M1248.23,1489.85c.53,326.83-186.08,592.71-416.56,593.46s-418-263.89-418.49-590.72S599.26,899.88,829.74,899.13s418,263.89,418.49,590.72"/><path class="an" d="M1234.94,1489.89c.52,316.62-180.27,574.18-403.54,574.92S426.5,1809.17,426,1492.55,606.25,918.36,829.52,917.63s404.9,255.64,405.41,572.26"/><path class="ao" d="M1221.89,1489.93c.5,306.41-174.45,555.66-390.52,556.37S439.53,1798.91,439,1492.5,613.49,936.84,829.55,936.13s391.84,247.39,392.34,553.8"/></g><g class="ap"><path class="d" d="M1526.42,1488.93c.89,544.79-310.18,988-694.35,989.23S135.39,2038.3,134.5,1493.5s310.18-988,694.35-989.23,696.68,439.86,697.57,984.66"/><path class="i" d="M1515.2,1489c.88,536-305.18,972-683.15,973.27S146.6,2029.47,145.73,1493.47s305.18-972,683.15-973.27S1514.32,953,1515.2,1489"/><path class="f" d="M1504.21,1489.35c.86,527.22-300.17,956.1-672,957.32S158.05,2021,157.19,1493.77s300.17-956.1,672-957.32,674.21,425.68,675.07,952.89"/><path class="g" d="M1492.75,1489c.85,518.43-295.17,940.16-660.75,941.36s-663-418.58-663.82-937S463.35,553.23,828.93,552s663,418.58,663.82,937"/><path class="g" d="M1481.52,1489.08c.83,509.64-290.17,924.23-649.55,925.41S180.23,2003,179.4,1493.36,469.57,569.13,829,568s651.74,411.49,652.57,921.13"/><path class="j" d="M1470.54,1489.12c.82,500.86-285.16,908.29-638.35,909.45s-640.5-404.39-641.32-905.25S476,585,829.22,583.87s640.5,404.39,641.32,905.25"/><path class="o" d="M1459.31,1489.16c.8,492.07-280.16,892.36-627.15,893.5s-629.26-397.3-630.07-889.37,280.16-892.36,627.15-893.5,629.26,397.3,630.07,889.37"/><path class="p" d="M1447.85,1489.19c.79,483.28-275.16,876.42-616,877.54s-618-390.2-618.81-873.49S488.24,616.83,829,615.71s618,390.2,618.81,873.49"/><path class="m" d="M1436.62,1489.23c.77,474.5-270.16,860.49-604.76,861.59s-606.79-383.11-607.56-857.6S494.46,632.72,829.06,631.62s606.79,383.11,607.56,857.6"/><path class="q" d="M1425.64,1489.61c.76,465.71-265.15,844.55-593.56,845.63s-595.55-376-596.31-841.72S500.92,649,829.32,647.88s595.55,376,596.31,841.72"/><path class="r" d="M1414.17,1489.3c.75,456.92-260.15,828.62-582.36,829.67S247.5,1950.06,246.75,1493.14,506.9,664.52,829.11,663.46s584.31,368.92,585.06,825.84"/><path class="y" d="M1402.95,1489.34c.73,448.14-255.15,812.68-571.16,813.72S258.71,1941.23,258,1493.1,513.12,680.42,829.14,679.38s573.08,361.82,573.81,810"/><path class="u" d="M1392,1489.38c.72,439.35-250.14,796.75-560,797.76s-561.84-354.73-562.56-794.08,250.14-796.75,560-797.76S1391.24,1050,1392,1489.38"/><path class="z" d="M1380.5,1489.41c.7,430.56-245.14,780.81-548.76,781.81S281.13,1923.59,280.43,1493,525.57,712.21,829.19,711.22s550.6,347.64,551.31,778.2"/><path class="w" d="M1369.27,1489.45c.69,421.77-240.14,764.88-537.56,765.85S292.34,1914.76,291.65,1493,531.79,728.11,829.21,727.13s539.37,340.54,540.06,762.32"/><path class="aa" d="M1358,1489.49c.67,413-235.14,748.94-526.36,749.9S303.55,1905.94,302.88,1493,538,744,829.24,743.05,1357.37,1076.5,1358,1489.49"/><path class="ae" d="M1347.06,1489.52c.66,404.2-230.13,733-515.16,733.94S315,1897.12,314.34,1492.91,544.48,759.91,829.51,759s516.89,326.35,517.55,730.55"/><path class="ac" d="M1335.59,1489.56c.65,395.41-225.13,717.07-504,718S326,1888.29,325.33,1492.88s225.13-717.07,504-718,505.66,319.26,506.3,714.67"/><path class="ah" d="M1324.37,1489.6c.63,386.63-220.13,701.14-492.76,702s-494.42-312.16-495.05-698.79,220.13-701.14,492.76-702S1323.74,1103,1324.37,1489.6"/><path class="ah" d="M1313.38,1489.63c.62,377.84-215.12,685.2-481.57,686.08S348.64,1870.64,348,1492.8,563.14,807.6,829.58,806.73s483.18,305.07,483.8,682.91"/><path class="ai" d="M1301.92,1489.67c.6,369.05-210.12,669.27-470.37,670.12s-471.95-298-472.55-667S569.12,823.5,829.37,822.65s471.95,298,472.55,667"/><path class="al" d="M1290.69,1489.71c.59,360.27-205.12,653.33-459.17,654.17S370.82,1853,370.23,1492.73,575.35,839.4,829.4,838.56s460.71,290.88,461.3,651.14"/><path class="am" d="M1279.47,1489.74c.57,351.48-200.12,637.4-448,638.21s-449.47-283.78-450-635.26,200.12-637.4,448-638.21,449.47,283.78,450,635.26"/><path class="aq" d="M1268.48,1489.78c.56,342.69-195.11,621.46-436.77,622.26s-438.24-276.69-438.8-619.38S588,871.19,829.69,870.4s438.24,276.69,438.8,619.38"/><path class="ar" d="M1257,1489.82c.55,333.9-190.11,605.53-425.57,606.3s-427-269.59-427.54-603.5S594,887.09,829.47,886.32s427,269.59,427.54,603.5"/><path class="as" d="M1245.79,1489.86c.53,325.12-185.11,589.59-414.37,590.35s-415.76-262.5-416.29-587.62S600.24,903,829.5,902.24s415.76,262.5,416.29,587.62"/><path class="at" d="M1234.81,1490.23c.52,316.33-180.1,573.66-403.17,574.39s-404.53-255.41-405-571.74S606.7,919.23,829.77,918.5s404.53,255.41,405,571.74"/><path class="au" d="M1223.34,1489.93c.5,307.54-175.1,557.72-392,558.44s-393.29-248.31-393.79-555.86,175.1-557.72,392-558.43,393.29,248.31,393.79,555.85"/></g><g class="av"><path class="d" d="M1517.81,1489c.88,538.05-306.34,975.75-685.76,977S144,2031.53,143.11,1493.48s306.34-975.75,685.76-977S1516.94,950.91,1517.81,1489"/><path class="i" d="M1508,1489c.87,530.37-302,961.81-676,963s-678.24-428.22-679.1-958.59,302-961.81,676-963S1507.13,958.63,1508,1489"/><path class="f" d="M1498.42,1489.37c.85,522.68-297.59,947.87-666.17,949.08s-668.41-422-669.26-944.69S460.58,545.89,829.16,544.68s668.41,422,669.26,944.69"/><path class="g" d="M1488.36,1489.06c.84,515-293.21,933.93-656.37,935.12s-658.58-415.81-659.42-930.8S465.78,559.45,828.94,558.26s658.58,415.81,659.42,930.8"/><path class="g" d="M1478.54,1489.09c.83,507.31-288.84,920-646.57,921.16s-648.75-409.6-649.58-916.91S471.22,573.36,829,572.18s648.75,409.6,649.58,916.91"/><path class="j" d="M1469,1489.12c.82,499.62-284.46,906-636.78,907.21s-638.92-403.39-639.73-903,284.46-906,636.78-907.21,638.92,403.39,639.73,903"/><path class="o" d="M1458.9,1489.16c.8,491.93-280.08,892.11-627,893.25S202.83,1985.22,202,1493.28,482.11,601.17,829,600s629.09,397.19,629.89,889.12"/><path class="p" d="M1449.32,1489.19c.79,484.25-275.71,878.17-617.19,879.29s-619.26-391-620-875.23S487.79,615.08,829.27,614s619.26,391,620,875.23"/><path class="m" d="M1439.26,1489.22c.78,476.56-271.33,864.23-607.39,865.34s-609.43-384.78-610.21-861.34S493,629,829.05,627.88s609.43,384.78,610.21,861.34"/><path class="q" d="M1429.44,1489.25c.77,468.88-267,850.29-597.59,851.38s-599.6-378.57-600.37-847.44,267-850.29,597.59-851.38,599.6,378.57,600.37,847.44"/><path class="r" d="M1419.86,1489.63c.75,461.19-262.58,836.35-587.8,837.42S242.3,1954.68,241.54,1493.5s262.58-836.35,587.8-837.42,589.77,372.36,590.52,833.55"/><path class="aw" d="M1409.8,1489.32c.74,453.5-258.2,822.41-578,823.46s-579.94-366.16-580.68-819.66,258.2-822.41,578-823.46,579.94,366.16,580.68,819.66"/><path class="u" d="M1400,1489.35c.73,445.82-253.83,808.47-568.2,809.51s-570.11-360-570.84-805.77,253.83-808.47,568.2-809.51,570.11,360,570.84,805.77"/><path class="z" d="M1390.4,1489.38c.72,438.13-249.45,794.54-558.41,795.55s-560.28-353.75-561-791.87S520.45,698.52,829.41,697.51s560.28,353.75,561,791.87"/><path class="w" d="M1380.34,1489.41c.7,430.44-245.07,780.6-548.61,781.59s-550.45-347.54-551.16-778,245.07-780.6,548.61-781.59,550.45,347.54,551.16,778"/><path class="aa" d="M1370.76,1489.45c.69,422.76-240.7,766.66-538.81,767.64S291.33,1915.75,290.64,1493s240.7-766.66,538.81-767.64,540.62,341.33,541.31,764.09"/><path class="ax" d="M1360.7,1489.48c.68,415.07-236.32,752.72-529,753.68S300.9,1908,300.22,1493s236.32-752.72,529-753.68,530.79,335.13,531.47,750.2"/><path class="af" d="M1350.89,1489.51c.67,407.38-231.94,738.78-519.22,739.72s-521-328.92-521.63-736.3S542,754.15,829.26,753.21s521,328.92,521.63,736.3"/><path class="ah" d="M1341.31,1489.88c.65,399.7-227.57,724.84-509.42,725.76S320.75,1892.93,320.1,1493.24,547.67,768.4,829.52,767.47s511.13,322.71,511.79,722.41"/><path class="ah" d="M1331.25,1489.57c.64,392-223.19,710.9-499.63,711.81s-501.3-316.51-501.94-708.52S552.87,782,829.3,781.06s501.3,316.51,501.94,708.52"/><path class="ai" d="M1321.43,1489.61c.63,384.32-218.82,697-489.83,697.85s-491.48-310.3-492.1-694.63S558.31,795.87,829.32,795s491.48,310.3,492.1,694.63"/><path class="al" d="M1311.85,1489.64c.61,376.64-214.44,683-480,683.89s-481.65-304.1-482.26-680.73,214.44-683,480-683.89,481.65,304.1,482.26,680.73"/><path class="am" d="M1301.79,1489.67c.6,369-210.06,669.08-470.24,669.94s-471.82-297.89-472.42-666.84S569.2,823.68,829.37,822.83s471.82,297.89,472.42,666.84"/><path class="aq" d="M1292.21,1489.7c.59,361.26-205.69,655.14-460.44,656s-462-291.68-462.58-652.95,205.69-655.14,460.44-656,462,291.68,462.58,652.95"/><path class="ao" d="M1282.15,1489.74c.58,353.58-201.31,641.2-450.64,642S379.35,1846.28,378.77,1492.7s201.31-641.2,450.64-642,452.16,285.48,452.73,639.06"/><path class="as" d="M1272.33,1489.77c.56,345.89-196.93,627.26-440.85,628.07s-442.33-279.27-442.89-625.16S585.53,865.41,829.44,864.6s442.33,279.27,442.89,625.16"/><path class="at" d="M1262.75,1490.14c.55,338.2-192.56,613.33-431,614.11S399.2,1831.18,398.65,1493s192.56-613.33,431-614.11,432.5,273.07,433.05,611.27"/><path class="au" d="M1252.69,1489.83c.54,330.52-188.18,599.39-421.25,600.15s-422.67-266.86-423.21-597.38S596.41,893.22,829.48,892.45s422.67,266.86,423.21,597.38"/><path class="ay" d="M1242.87,1489.87c.53,322.83-183.81,585.45-411.46,586.19S418.58,1815.41,418,1492.57,601.86,907.13,829.51,906.38s412.84,260.65,413.37,583.49"/><path class="az" d="M1233.29,1489.9c.51,315.15-179.43,571.51-401.66,572.24s-403-254.45-403.52-569.59S607.54,921,829.77,920.3s403,254.45,403.52,569.59"/><path class="ba" d="M1223.23,1489.93c.5,307.46-175.05,557.57-391.86,558.28S438.19,1800,437.69,1492.51,612.74,934.94,829.55,934.23s393.18,248.24,393.68,555.7"/></g></g><g class="bb"><g class="bc"><path class="d" d="M1006.69,1488.74c1,592-337,1073.52-754.48,1074.89s-757-478-758-1069.93,337-1073.52,754.48-1074.89,757,478,758,1069.93"/><path class="e" d="M898.66,1489.09c.83,507.4-288.89,920.16-646.7,921.34s-648.87-409.68-649.7-917.08S-108.85,573.18,249,572s648.87,409.68,649.7,917.08"/><path class="f" d="M790.63,1489.45c.69,422.84-240.74,766.8-538.91,767.78S-289,1915.83-289.7,1493-49,726.19,249.21,725.21s540.73,341.4,541.42,764.23"/><path class="g" d="M682.83,1489.8c.55,338.27-192.59,613.44-431.13,614.23s-432.58-273.12-433.13-611.39S11.16,879.2,249.7,878.41s432.58,273.12,433.13,611.39"/></g><g class="bd"><path class="d" d="M998.08,1488.76c1,585.23-333.2,1061.3-745.89,1062.65S-496.2,2078.9-497.16,1493.67-164,432.37,248.73,431s748.4,472.51,749.35,1057.75"/><path class="i" d="M948.24,1488.93c.89,546.21-311,990.55-696.16,991.81s-698.5-441-699.39-987.23S-136.33,503,248.85,501.7s698.5,441,699.39,987.23"/><path class="f" d="M898.64,1489.09c.83,507.2-288.78,919.79-646.44,921s-648.61-409.51-649.44-916.71,288.78-919.79,646.44-921,648.61,409.51,649.44,916.71"/><path class="g" d="M848.56,1489.26c.76,468.18-266.56,849-596.71,850.12s-598.72-378-599.48-846.2,266.56-849,596.71-850.12,598.72,378,599.48,846.2"/><path class="j" d="M799,1489.42c.7,429.17-244.35,778.29-547,779.28S-296.85,1922.19-297.55,1493s244.35-778.29,547-779.28S798.26,1060.25,799,1489.42"/><path class="k" d="M748.87,1489.58c.64,390.15-222.14,707.53-497.26,708.44S-247.32,1883-248,1492.86-25.82,785.32,249.31,784.42s498.93,315,499.57,705.16"/><path class="l" d="M699,1489.75c.57,351.14-199.92,636.78-447.53,637.59s-449-283.51-449.61-634.65S1.81,855.91,249.42,855.1s449,283.51,449.61,634.65"/><path class="m" d="M649.43,1489.91c.51,312.12-177.71,566-397.81,566.75s-399.14-252-399.65-564.13,177.71-566,397.81-566.75,399.14,252,399.65,564.13"/></g><g class="be"><path class="d" d="M989.71,1488.79c.94,578.49-329.37,1049.08-737.3,1050.42s-739.78-467.07-740.72-1045.57S-158.94,444.57,249,443.23,988.77,910.3,989.71,1488.79"/><path class="i" d="M957.34,1488.9c.9,553.34-315,1003.47-705.24,1004.75s-707.61-446.77-708.52-1000.11,315-1003.47,705.24-1004.75S956.44,935.56,957.34,1488.9"/><path class="f" d="M925.21,1489c.86,528.19-300.73,957.86-673.19,959.08s-675.45-426.46-676.31-954.65S-123.56,535.58,248.9,534.36,924.35,960.82,925.21,1489"/><path class="g" d="M893.32,1489.11c.82,503-286.41,912.24-641.13,913.41s-643.29-406.15-644.11-909.19,286.41-912.24,641.13-913.41S892.5,986.07,893.32,1489.11"/><path class="g" d="M860.95,1489.21c.78,477.88-272.09,866.63-609.07,867.74S-359.25,1971.11-360,1493.22-87.94,626.59,249,625.49s611.12,385.84,611.9,863.73"/><path class="j" d="M828.82,1489.32c.74,452.73-257.76,821-577,822.07s-579-365.54-579.7-818.27,257.76-821,577-822.07,579,365.54,579.7,818.27"/><path class="o" d="M796.93,1489.43c.7,427.58-243.44,775.41-545,776.4S-294.83,1920.59-295.52,1493s243.44-775.41,545-776.4,546.79,345.23,547.49,772.81"/><path class="p" d="M764.56,1489.53c.66,402.43-229.12,729.79-512.91,730.73S-263,1895.34-263.63,1492.91-34.51,763.11,249.27,762.18,763.9,1087.1,764.56,1489.53"/><path class="m" d="M732.43,1489.64c.62,377.28-214.8,684.18-480.85,685.06S-230.89,1870.08-231.5,1492.8-16.7,808.62,249.35,807.75s482.46,304.61,483.08,681.89"/><path class="q" d="M700.54,1489.74c.57,352.13-200.48,638.57-448.79,639.39s-450.3-284.31-450.88-636.43S1.35,854.13,249.66,853.31,700,1137.62,700.54,1489.74"/><path class="r" d="M668.16,1489.85c.53,327-186.16,593-416.74,593.72s-418.14-264-418.67-591,186.16-593,416.74-593.72,418.14,264,418.67,591"/></g><g class="bf"><path class="d" d="M981.1,1488.82C982,2060.57,655.57,2525.68,252.39,2527S-478.77,2065.37-479.7,1493.62-154.17,456.76,249,455.44,980.17,917.07,981.1,1488.82"/><path class="i" d="M957.3,1488.9c.9,553.31-315,1003.41-705.2,1004.69s-707.57-446.74-708.48-1000,315-1003.41,705.2-1004.69S956.4,935.59,957.3,1488.9"/><path class="f" d="M933.74,1489c.87,534.86-304.53,970-681.7,971.2s-684-431.85-684.86-966.71,304.53-970,681.7-971.2,684,431.85,684.86,966.71"/><path class="g" d="M910.18,1489.05c.84,516.42-294,936.52-658.19,937.71s-660.4-417-661.24-933.38,294-936.51,658.19-937.71,660.4,417,661.24,933.38"/><path class="g" d="M886.62,1489.13c.81,498-283.52,903.07-634.68,904.22s-636.82-402.07-637.63-900S-102.17,590.24,249,589.09s636.82,402.07,637.63,900"/><path class="j" d="M863.06,1489.21c.78,479.53-273,869.62-611.18,870.73s-613.23-387.18-614-866.71S-89.11,623.61,249,622.5s613.23,387.18,614,866.71"/><path class="l" d="M839.49,1489.29c.75,461.09-262.52,836.17-587.67,837.24s-589.64-372.28-590.4-833.37S-76,657,249.1,655.91s589.64,372.28,590.4,833.37"/><path class="p" d="M816.17,1489.36c.72,442.65-252,802.73-564.16,803.75s-566.06-357.39-566.78-800,252-802.73,564.16-803.75,566.06,357.39,566.78,800"/><path class="m" d="M792.61,1489.44c.69,424.2-241.52,769.28-540.66,770.26S-290.52,1917.2-291.21,1493-49.69,723.72,249.45,722.74s542.47,342.5,543.17,766.7"/><path class="q" d="M769.05,1489.52c.66,405.76-231,735.83-517.15,736.77S-267,1898.68-267.65,1492.92s231-735.83,517.15-736.77,518.89,327.61,519.55,733.37"/><path class="r" d="M745.25,1489.59c.63,387.32-220.52,702.39-493.64,703.28s-495.3-312.72-495.93-700S-23.81,790.46,249.32,789.56s495.3,312.72,495.93,700"/><path class="t" d="M721.69,1489.67c.6,368.87-210,668.94-470.14,669.79s-471.72-297.83-472.32-666.7S-10.75,823.83,249.37,823s471.72,297.83,472.32,666.7"/><path class="u" d="M698.13,1489.75c.57,350.43-199.52,635.49-446.63,636.3s-448.13-282.94-448.7-633.36S2.31,857.2,249.42,856.39s448.13,282.94,448.7,633.36"/><path class="v" d="M674.57,1489.83c.54,332-189,602-423.12,602.81s-424.54-268-425.09-600,189-602,423.12-602.81,424.54,268,425.09,600"/><path class="w" d="M651,1489.9c.51,313.54-178.52,568.6-399.62,569.32s-401-253.15-401.47-566.69S28.43,923.94,249.53,923.21s401,253.15,401.47,566.69"/></g><g class="bg"><path class="d" d="M972.25,1488.85c.92,565-321.69,1024.63-720.12,1025.94s-722.54-456.19-723.46-1021.2S-149.64,469,248.79,467.65s722.54,456.19,723.46,1021.2"/><path class="i" d="M953.74,1488.91c.9,550.52-313.44,998.36-701.66,999.64s-704-444.49-704.91-995,313.44-998.36,701.66-999.64,704,444.49,704.91,995"/><path class="f" d="M935.24,1489C936.11,2025,630,2461.06,252,2462.3s-685.49-432.8-686.36-968.83,305.19-972.09,683.19-973.33S934.36,952.93,935.24,1489"/><path class="g" d="M917,1489.37c.85,521.55-296.95,945.82-664.73,947s-667-421.1-667.81-942.65,296.95-945.82,664.73-947,667,421.1,667.81,942.65"/><path class="g" d="M898.22,1489.09c.83,507.06-288.7,919.54-646.26,920.72s-648.43-409.4-649.26-916.46S-108.6,573.8,249,572.63,897.39,982,898.22,1489.09"/><path class="j" d="M879.71,1489.15c.8,492.57-280.45,893.27-627.8,894.41S-378,1985.86-378.79,1493.29-98.34,600,249,598.87s629.91,397.7,630.71,890.28"/><path class="l" d="M861.21,1489.21c.78,478.09-272.2,867-609.33,868.1s-611.38-386-612.16-864.09,272.2-867,609.33-868.1,611.38,386,612.16,864.09"/><path class="p" d="M842.7,1489.27c.76,463.6-264,840.72-590.87,841.8S-341,1956.76-341.78,1493.16s264-840.72,590.87-841.8,592.85,374.31,593.61,837.91"/><path class="m" d="M824.43,1489.68c.73,449.11-255.7,814.45-572.4,815.49S-322.3,1942.56-323,1493.44-67.33,679,249.37,678s574.33,362.61,575.06,811.72"/><path class="q" d="M805.69,1489.4c.71,434.62-247.45,788.18-553.94,789.19S-304.05,1927.67-304.76,1493-57.31,704.86,249.18,703.86,805,1054.77,805.69,1489.4"/><path class="r" d="M787.18,1489.46c.69,420.14-239.21,761.91-535.47,762.88s-537.27-339.22-538-759.35S-47,731.07,249.22,730.1s537.27,339.22,538,759.35"/><path class="y" d="M768.67,1489.52c.66,405.65-231,735.63-517,736.57s-518.75-327.52-519.41-733.17,231-735.63,517-736.57S768,1083.87,768.67,1489.52"/><path class="u" d="M750.16,1489.58c.64,391.16-222.71,709.36-498.54,710.27s-500.22-315.82-500.86-707S-26.53,783.5,249.3,782.59s500.22,315.82,500.86,707"/><path class="z" d="M731.9,1489.64c.62,376.67-214.46,683.09-480.08,684s-481.69-304.13-482.31-680.8S-16,809.71,249.59,808.84,731.28,1113,731.9,1489.64"/><path class="w" d="M713.15,1489.7c.59,362.19-206.21,656.82-461.62,657.65s-463.17-292.43-463.76-654.62S-6,835.92,249.39,835.08s463.17,292.43,463.76,654.62"/><path class="aa" d="M694.88,1489.76c.57,347.7-198,630.54-443.15,631.35s-444.64-280.73-445.21-628.43,198-630.54,443.15-631.35,444.64,280.73,445.21,628.43"/><path class="ab" d="M676.13,1489.82c.54,333.21-189.72,604.27-424.69,605s-426.11-269-426.66-602.25,189.72-604.27,424.69-605,426.11,269,426.66,602.25"/><path class="ac" d="M657.63,1489.88c.52,318.72-181.47,578-406.22,578.74s-407.59-257.34-408.11-576.06,181.47-578,406.22-578.74,407.59,257.34,408.11,576.06"/></g><g class="bh"><path class="d" d="M963.64,1488.88c.91,558.27-317.85,1012.41-711.53,1013.7s-713.92-450.75-714.83-1009S-144.87,481.15,248.81,479.86s713.92,450.75,714.83,1009"/><path class="i" d="M948.38,1488.93c.89,546.13-310.94,990.4-696.06,991.67S-446.08,2039.64-447,1493.51-136,503.11,249.09,501.84s698.4,440.95,699.29,987.08"/><path class="f" d="M932.87,1489.32c.87,534-304,968.39-680.59,969.63S-430.6,2027.8-431.47,1493.8s304-968.39,680.59-969.63S932,955.32,932.87,1489.32"/><path class="g" d="M917.13,1489C918,2010.89,620,2435.41,252,2436.62s-667.36-421.35-668.21-943.21S-119.08,547,248.92,545.82,916.28,967.17,917.13,1489"/><path class="g" d="M901.63,1489.08c.83,509.73-290.21,924.37-649.66,925.55s-651.84-411.55-652.67-921.28S-110.49,569,249,567.8s651.84,411.55,652.67,921.28"/><path class="j" d="M886.12,1489.13c.81,497.59-283.3,902.37-634.19,903.52S-384.39,1990.9-385.2,1493.31-101.9,590.94,249,589.79s636.32,401.75,637.13,899.34"/><path class="l" d="M870.62,1489.18c.79,485.45-276.39,880.36-618.72,881.48s-620.8-392-621.59-877.41S-93.3,612.9,249,611.78s620.8,392,621.59,877.41"/><path class="p" d="M855.36,1489.23c.77,473.32-269.48,858.35-603.25,859.44S-353.18,1966.52-354,1493.2-84.47,634.86,249.3,633.76s605.28,382.16,606.05,855.47"/><path class="m" d="M839.85,1489.28c.75,461.18-262.57,836.34-587.78,837.41s-589.76-372.36-590.51-833.54S-75.87,656.82,249.34,655.75,839.1,1028.1,839.85,1489.28"/><path class="q" d="M824.11,1489.34c.73,449-255.66,814.33-572.32,815.37s-574.24-362.56-575-811.6S-67.52,678.77,249.13,677.73s574.24,362.56,575,811.6"/><path class="r" d="M808.6,1489.39c.71,436.91-248.75,792.32-556.85,793.33S-307,1930-307.68,1493.05-58.93,700.73,249.17,699.72s558.72,352.76,559.43,789.67"/><path class="t" d="M793.1,1489.44c.69,424.77-241.85,770.31-541.38,771.3s-543.2-343-543.89-767.73S-50.33,722.69,249.2,721.71s543.2,343,543.89,767.73"/><path class="u" d="M777.59,1489.49c.67,412.63-234.94,748.3-525.91,749.26S-276,1905.59-276.67,1492.95s234.94-748.3,525.91-749.26,527.68,333.16,528.35,745.8"/><path class="z" d="M762.33,1489.54c.65,400.5-228,726.29-510.44,727.22S-260.27,1893.4-260.93,1492.9s228-726.29,510.44-727.22S761.68,1089,762.33,1489.54"/><path class="w" d="M746.83,1489.59c.63,388.36-221.12,704.29-495,705.18s-496.64-313.56-497.27-701.93,221.12-704.29,495-705.18,496.64,313.56,497.27,701.93"/><path class="aa" d="M731.08,1489.64c.61,376.23-214.21,682.28-479.51,683.15s-481.12-303.76-481.73-680S-16,810.52,249.35,809.65s481.12,303.76,481.73,680"/><path class="ae" d="M715.58,1489.69c.59,364.09-207.3,660.27-464,661.11s-465.6-294-466.19-658.06,207.3-660.27,464-661.11,465.6,294,466.19,658.06"/><path class="af" d="M700.07,1489.74c.57,352-200.39,638.26-448.57,639.07s-450.08-284.17-450.65-636.12S1.23,854.44,249.42,853.62s450.08,284.17,450.65,636.12"/><path class="ag" d="M684.57,1489.79c.55,339.82-193.48,616.25-433.1,617s-434.56-274.37-435.11-614.19,193.48-616.25,433.1-617S684,1150,684.57,1489.79"/><path class="ah" d="M669.31,1489.84c.54,327.68-186.57,594.24-417.64,595s-419-264.57-419.58-592.25,186.57-594.24,417.64-595,419,264.57,419.58,592.25"/><path class="ai" d="M653.8,1489.9c.52,315.54-179.66,572.23-402.17,573s-403.52-254.77-404-570.31,179.66-572.23,402.17-573,403.52,254.77,404,570.31"/></g><g class="bi"><path class="d" d="M955,1488.91c.9,551.53-314,1000.19-702.94,1001.47s-705.3-445.31-706.2-996.84,314-1000.19,702.94-1001.47S954.13,937.37,955,1488.91"/><path class="i" d="M942,1488.95c.88,541.32-308.2,981.67-689.92,982.92s-692.24-437.06-693.13-978.38,308.2-981.67,689.92-982.92S941.1,947.63,942,1488.95"/><path class="f" d="M928.94,1489c.87,531.11-302.39,963.15-676.91,964.38s-679.18-428.81-680-959.92S-125.63,530.3,248.89,529.07s679.18,428.81,680,959.92"/><path class="g" d="M915.89,1489c.85,520.89-296.57,944.62-663.89,945.83S-414.12,2014.3-415,1493.4-118.4,548.78,248.92,547.57,915,968.14,915.89,1489"/><path class="g" d="M902.84,1489.08c.83,510.68-290.76,926.1-650.87,927.28s-653.06-412.32-653.89-923S-111.16,567.26,249,566.08,902,978.4,902.84,1489.08"/><path class="j" d="M890,1489.12c.82,500.46-284.94,907.58-637.85,908.74s-640-404.07-640.81-904.54,284.94-907.58,637.85-908.74,640,404.07,640.81,904.54"/><path class="o" d="M877,1489.16c.8,490.25-279.13,889.06-624.84,890.19s-626.94-395.83-627.74-886.08S-96.46,604.22,249.25,603.08,876.19,998.91,877,1489.16"/><path class="p" d="M863.94,1489.21c.78,480-273.31,870.54-611.82,871.65s-613.87-387.58-614.66-867.62S-89.23,622.7,249.28,621.59s613.87,387.58,614.66,867.62"/><path class="m" d="M850.89,1489.25c.77,469.82-267.5,852-598.8,853.1S-348.72,1963-349.49,1493.19s267.5-852,598.8-853.1,600.81,379.34,601.58,849.16"/><path class="q" d="M837.6,1489.29c.75,459.61-261.68,833.49-585.78,834.56s-587.75-371.09-588.5-830.7S-75,659.66,249.1,658.59s587.75,371.09,588.5,830.7"/><path class="r" d="M824.56,1489.33c.73,449.4-255.87,815-572.77,816S-322.9,1942.5-323.63,1493.1s255.87-815,572.77-816,574.69,362.84,575.43,812.24"/><path class="t" d="M811.51,1489.38c.72,439.18-250.05,796.45-559.75,797.46s-561.63-354.6-562.35-793.78S-60.54,696.61,249.16,695.6s561.63,354.6,562.35,793.78"/><path class="u" d="M798.46,1489.42c.7,429-244.24,777.93-546.73,778.92S-296.84,1922-297.54,1493-53.3,715.09,249.19,714.1s548.57,346.35,549.27,775.32"/><path class="z" d="M785.41,1489.46c.68,418.76-238.42,759.4-533.71,760.37S-283.81,1911.73-284.49,1493-46.07,733.57,249.22,732.6s535.51,338.1,536.19,756.86"/><path class="w" d="M772.37,1489.51c.67,408.54-232.61,740.88-520.7,741.83s-522.45-329.86-523.11-738.4,232.61-740.88,520.7-741.83S771.7,1081,772.37,1489.51"/><path class="aa" d="M759.32,1489.55c.65,398.33-226.79,722.36-507.68,723.28s-509.39-321.61-510-719.94S-31.61,770.53,249.28,769.61s509.39,321.61,510,719.94"/><path class="ae" d="M746.27,1489.59c.63,388.12-221,703.84-494.66,704.74s-496.32-313.36-497-701.48S-24.37,789,249.31,788.11s496.32,313.36,497,701.48"/><path class="af" d="M733.22,1489.63c.62,377.9-215.16,685.32-481.64,686.19s-483.26-305.12-483.88-683S-17.14,807.49,249.34,806.61s483.26,305.12,483.88,683"/><path class="ak" d="M720.42,1489.68c.6,367.69-209.34,666.79-468.63,667.64s-470.2-296.87-470.8-664.56S-9.67,826,249.61,825.12s470.2,296.87,470.8,664.56"/><path class="ah" d="M707.37,1489.72c.58,357.47-203.53,648.27-455.61,649.1S-205.38,1850.19-206,1492.72-2.44,844.45,249.64,843.62s457.14,288.63,457.72,646.1"/><path class="ai" d="M694.32,1490.1c.57,347.26-197.71,629.75-442.59,630.55S-192.35,1840.28-192.92,1493,4.8,863.27,249.67,862.46s444.08,280.38,444.65,627.64"/><path class="al" d="M681.27,1489.81c.55,337-191.9,611.23-429.57,612s-431-272.13-431.57-609.18S12,881.41,249.71,880.63s431,272.13,431.57,609.18"/><path class="am" d="M668.23,1489.85c.53,326.83-186.08,592.71-416.56,593.46s-418-263.89-418.49-590.72S19.26,899.88,249.74,899.13s418,263.89,418.49,590.72"/><path class="an" d="M654.94,1489.89c.52,316.62-180.27,574.18-403.54,574.92S-153.5,1809.17-154,1492.55,26.25,918.36,249.52,917.63s404.9,255.64,405.41,572.26"/><path class="ao" d="M641.89,1489.93c.5,306.41-174.45,555.66-390.52,556.37S-140.47,1798.91-141,1492.5,33.49,936.84,249.55,936.13s391.84,247.39,392.34,553.8"/></g><g class="bj"><path class="d" d="M946.42,1488.93c.89,544.79-310.18,988-694.35,989.23S-444.61,2038.3-445.5,1493.5s310.18-988,694.35-989.23,696.68,439.86,697.57,984.66"/><path class="i" d="M935.2,1489C936.07,2025,630,2461,252,2462.24s-685.45-432.77-686.32-968.78,305.18-972,683.15-973.27S934.32,953,935.2,1489"/><path class="f" d="M924.21,1489.35c.86,527.22-300.17,956.1-672,957.32S-421.95,2021-422.81,1493.77s300.17-956.1,672-957.32,674.21,425.68,675.07,952.89"/><path class="g" d="M912.75,1489c.85,518.43-295.17,940.16-660.75,941.36s-663-418.58-663.82-937S-116.65,553.23,248.93,552s663,418.58,663.82,937"/><path class="g" d="M901.52,1489.08c.83,509.64-290.17,924.23-649.55,925.41S-399.77,2003-400.6,1493.36-110.43,569.13,249,568s651.74,411.49,652.57,921.13"/><path class="j" d="M890.54,1489.12c.82,500.86-285.16,908.29-638.35,909.45s-640.5-404.39-641.32-905.25S-104,585,249.22,583.87s640.5,404.39,641.32,905.25"/><path class="o" d="M879.31,1489.16c.8,492.07-280.16,892.36-627.15,893.5s-629.26-397.3-630.07-889.37,280.16-892.36,627.15-893.5,629.26,397.3,630.07,889.37"/><path class="p" d="M867.85,1489.19c.79,483.28-275.16,876.42-616,877.54s-618-390.2-618.81-873.49S-91.76,616.83,249,615.71s618,390.2,618.81,873.49"/><path class="m" d="M856.62,1489.23c.77,474.5-270.16,860.49-604.76,861.59s-606.79-383.11-607.56-857.6S-85.54,632.72,249.06,631.62s606.79,383.11,607.56,857.6"/><path class="q" d="M845.64,1489.61c.76,465.71-265.15,844.55-593.56,845.63s-595.55-376-596.31-841.72S-79.08,649,249.32,647.88s595.55,376,596.31,841.72"/><path class="r" d="M834.17,1489.3C834.92,1946.22,574,2317.92,251.81,2319s-584.31-368.92-585.06-825.84S-73.1,664.52,249.11,663.46s584.31,368.92,585.06,825.84"/><path class="y" d="M822.95,1489.34c.73,448.14-255.15,812.68-571.16,813.72s-573.08-361.82-573.81-810S-66.88,680.42,249.14,679.38s573.08,361.82,573.81,810"/><path class="u" d="M812,1489.38c.72,439.35-250.14,796.75-560,797.76s-561.84-354.73-562.56-794.08,250.14-796.75,560-797.76S811.24,1050,812,1489.38"/><path class="z" d="M800.5,1489.41c.7,430.56-245.14,780.81-548.76,781.81s-550.6-347.64-551.31-778.2S-54.43,712.21,249.19,711.22s550.6,347.64,551.31,778.2"/><path class="w" d="M789.27,1489.45c.69,421.77-240.14,764.88-537.56,765.85S-287.66,1914.76-288.35,1493-48.21,728.11,249.21,727.13s539.37,340.54,540.06,762.32"/><path class="aa" d="M778,1489.49c.67,413-235.14,748.94-526.36,749.9S-276.45,1905.94-277.12,1493-42,744,249.24,743.05,777.37,1076.5,778,1489.49"/><path class="ae" d="M767.06,1489.52c.66,404.2-230.13,733-515.16,733.94S-265,1897.12-265.66,1492.91-35.52,759.91,249.51,759s516.89,326.35,517.55,730.55"/><path class="ac" d="M755.59,1489.56c.65,395.41-225.13,717.07-504,718S-254,1888.29-254.67,1492.88s225.13-717.07,504-718,505.66,319.26,506.3,714.67"/><path class="ah" d="M744.37,1489.6c.63,386.63-220.13,701.14-492.76,702s-494.42-312.16-495.05-698.79,220.13-701.14,492.76-702S743.74,1103,744.37,1489.6"/><path class="ah" d="M733.38,1489.63c.62,377.84-215.12,685.2-481.57,686.08S-231.36,1870.64-232,1492.8-16.86,807.6,249.58,806.73s483.18,305.07,483.8,682.91"/><path class="ai" d="M721.92,1489.67c.6,369.05-210.12,669.27-470.37,670.12s-471.95-298-472.55-667S-10.88,823.5,249.37,822.65s471.95,298,472.55,667"/><path class="al" d="M710.69,1489.71C711.28,1850,505.58,2143,251.53,2143.87S-209.18,1853-209.77,1492.73-4.65,839.4,249.4,838.56s460.71,290.88,461.3,651.14"/><path class="am" d="M699.47,1489.74c.57,351.48-200.12,637.4-448,638.21s-449.47-283.78-450-635.26,200.12-637.4,448-638.21,449.47,283.78,450,635.26"/><path class="aq" d="M688.48,1489.78C689,1832.47,493.37,2111.24,251.72,2112s-438.24-276.69-438.8-619.38S8,871.19,249.69,870.4s438.24,276.69,438.8,619.38"/><path class="ar" d="M677,1489.82c.55,333.9-190.11,605.53-425.57,606.3s-427-269.59-427.54-603.5S14,887.09,249.47,886.32s427,269.59,427.54,603.5"/><path class="as" d="M665.79,1489.86c.53,325.12-185.11,589.59-414.37,590.35s-415.76-262.5-416.29-587.62S20.24,903,249.5,902.24s415.76,262.5,416.29,587.62"/><path class="at" d="M654.81,1490.23c.52,316.33-180.1,573.66-403.17,574.39s-404.53-255.41-405-571.74S26.7,919.23,249.77,918.5s404.53,255.41,405,571.74"/><path class="au" d="M643.34,1489.93c.5,307.54-175.1,557.72-392,558.44s-393.29-248.31-393.79-555.86,175.1-557.72,392-558.43,393.29,248.31,393.79,555.85"/></g><g class="bk"><path class="d" d="M937.81,1489c.88,538.05-306.34,975.75-685.76,977S-436,2031.53-436.89,1493.48s306.34-975.75,685.76-977S936.94,950.91,937.81,1489"/><path class="i" d="M928,1489c.87,530.37-302,961.81-676,963s-678.24-428.22-679.1-958.59,302-961.81,676-963S927.13,958.63,928,1489"/><path class="f" d="M918.42,1489.37c.85,522.68-297.59,947.87-666.17,949.08s-668.41-422-669.26-944.69,297.59-947.87,666.17-949.08,668.41,422,669.26,944.69"/><path class="g" d="M908.36,1489.06c.84,515-293.21,933.93-656.37,935.12s-658.58-415.81-659.42-930.8,293.21-933.93,656.37-935.12,658.58,415.81,659.42,930.8"/><path class="g" d="M898.54,1489.09c.83,507.31-288.84,920-646.57,921.16s-648.75-409.6-649.58-916.91,288.84-920,646.57-921.16,648.75,409.6,649.58,916.91"/><path class="j" d="M889,1489.12c.82,499.62-284.46,906-636.78,907.21s-638.92-403.39-639.73-903,284.46-906,636.78-907.21S888.14,989.5,889,1489.12"/><path class="o" d="M878.9,1489.16c.8,491.93-280.08,892.11-627,893.25S-377.17,1985.22-378,1493.28-97.89,601.17,249,600,878.09,997.22,878.9,1489.16"/><path class="p" d="M869.32,1489.19c.79,484.25-275.71,878.17-617.19,879.29s-619.26-391-620-875.23S-92.21,615.08,249.27,614s619.26,391,620,875.23"/><path class="m" d="M859.26,1489.22c.78,476.56-271.33,864.23-607.39,865.34s-609.43-384.78-610.21-861.34S-87,629,249.05,627.88s609.43,384.78,610.21,861.34"/><path class="q" d="M849.44,1489.25c.77,468.88-267,850.29-597.59,851.38s-599.6-378.57-600.37-847.44,267-850.29,597.59-851.38,599.6,378.57,600.37,847.44"/><path class="r" d="M839.86,1489.63c.75,461.19-262.58,836.35-587.8,837.42S-337.7,1954.68-338.46,1493.5s262.58-836.35,587.8-837.42,589.77,372.36,590.52,833.55"/><path class="aw" d="M829.8,1489.32c.74,453.5-258.2,822.41-578,823.46s-579.94-366.16-580.68-819.66,258.2-822.41,578-823.46,579.94,366.16,580.68,819.66"/><path class="u" d="M820,1489.35c.73,445.82-253.83,808.47-568.2,809.51s-570.11-360-570.84-805.77,253.83-808.47,568.2-809.51,570.11,360,570.84,805.77"/><path class="z" d="M810.4,1489.38C811.12,1927.51,561,2283.92,252,2284.93s-560.28-353.75-561-791.87S-59.55,698.52,249.41,697.51s560.28,353.75,561,791.87"/><path class="w" d="M800.34,1489.41C801,1919.86,555.27,2270,251.73,2271s-550.45-347.54-551.16-778,245.07-780.6,548.61-781.59,550.45,347.54,551.16,778"/><path class="aa" d="M790.76,1489.45c.69,422.76-240.7,766.66-538.81,767.64S-288.67,1915.75-289.36,1493s240.7-766.66,538.81-767.64,540.62,341.33,541.31,764.09"/><path class="ax" d="M780.7,1489.48c.68,415.07-236.32,752.72-529,753.68S-279.1,1908-279.78,1493s236.32-752.72,529-753.68S780,1074.41,780.7,1489.48"/><path class="af" d="M770.89,1489.51c.67,407.38-231.94,738.78-519.22,739.72s-521-328.92-521.63-736.3S-38,754.15,249.26,753.21s521,328.92,521.63,736.3"/><path class="ah" d="M761.31,1489.88c.65,399.7-227.57,724.84-509.42,725.76s-511.13-322.71-511.79-722.41S-32.33,768.4,249.52,767.47s511.13,322.71,511.79,722.41"/><path class="ah" d="M751.25,1489.57c.64,392-223.19,710.9-499.63,711.81s-501.3-316.51-501.94-708.52S-27.13,782,249.3,781.06s501.3,316.51,501.94,708.52"/><path class="ai" d="M741.43,1489.61c.63,384.32-218.82,697-489.83,697.85s-491.48-310.3-492.1-694.63S-21.69,795.87,249.32,795s491.48,310.3,492.1,694.63"/><path class="al" d="M731.85,1489.64c.61,376.64-214.44,683-480,683.89s-481.65-304.1-482.26-680.73,214.44-683,480-683.89S731.23,1113,731.85,1489.64"/><path class="am" d="M721.79,1489.67c.6,369-210.06,669.08-470.24,669.94s-471.82-297.89-472.42-666.84S-10.8,823.68,249.37,822.83s471.82,297.89,472.42,666.84"/><path class="aq" d="M712.21,1489.7c.59,361.26-205.69,655.14-460.44,656s-462-291.68-462.58-652.95,205.69-655.14,460.44-656,462,291.68,462.58,652.95"/><path class="ao" d="M702.15,1489.74c.58,353.58-201.31,641.2-450.64,642s-452.16-285.48-452.73-639.06S.08,851.5,249.42,850.68s452.16,285.48,452.73,639.06"/><path class="as" d="M692.33,1489.77c.56,345.89-196.93,627.26-440.85,628.07s-442.33-279.27-442.89-625.16S5.53,865.41,249.44,864.6s442.33,279.27,442.89,625.16"/><path class="at" d="M682.75,1490.14c.55,338.2-192.56,613.33-431,614.11S-180.8,1831.18-181.35,1493s192.56-613.33,431-614.11,432.5,273.07,433.05,611.27"/><path class="au" d="M672.69,1489.83c.54,330.52-188.18,599.39-421.25,600.15s-422.67-266.86-423.21-597.38S16.41,893.22,249.48,892.45s422.67,266.86,423.21,597.38"/><path class="ay" d="M662.87,1489.87c.53,322.83-183.81,585.45-411.46,586.19S-161.42,1815.41-162,1492.57,21.86,907.13,249.51,906.38,662.35,1167,662.87,1489.87"/><path class="az" d="M653.29,1489.9c.51,315.15-179.43,571.51-401.66,572.24s-403-254.45-403.52-569.59S27.54,921,249.77,920.3s403,254.45,403.52,569.59"/><path class="ba" d="M643.23,1489.93c.5,307.46-175.05,557.57-391.86,558.28S-141.81,1800-142.31,1492.51,32.74,934.94,249.55,934.23s393.18,248.24,393.68,555.7"/></g></g></svg>