<svg xmlns="http://www.w3.org/2000/svg" xmlns:xlink="http://www.w3.org/1999/xlink" viewBox="0 0 486 461.99"><defs><style>.a,.ac,.ad{fill:none;}.b{clip-path:url(#a);}.c{clip-path:url(#b);}.d{fill:#d09551;}.e{fill:#d29752;}.f{clip-path:url(#c);}.g{fill:#d09752;}.h{fill:#d29853;}.i{fill:#d29955;}.j{clip-path:url(#d);}.k{fill:#d29a56;}.l{clip-path:url(#e);}.m{fill:#d39b58;}.n{fill:#d39b59;}.o{clip-path:url(#f);}.p{fill:#d59e5a;}.q{clip-path:url(#g);}.r{fill:#d59e5b;}.s{fill:#d59f5c;}.t{clip-path:url(#h);}.u{fill:#d29b57;}.v{fill:#d6a05d;}.w{clip-path:url(#i);}.x{fill:#d69f5d;}.y{fill:#d6a05e;}.z{clip-path:url(#j);}.aa{fill:#d59f5d;}.ab{fill:#d6a15f;}.ac,.ad{stroke:#000;stroke-miterlimit:10;}.ac{stroke-width:2px;}.ad{stroke-width:4px;}</style><clipPath id="a"><rect class="a" x="-587" y="781" width="500" height="940"/></clipPath><clipPath id="b"><path class="a" d="M-559.45,1754.55c-28,0-50.71-32.2-50.71-71.92V821.84c0-39.72,22.7-71.92,50.71-71.92h446c28,0,50.71,32.2,50.71,71.92v860.79c0,39.71-22.7,71.92-50.71,71.92h-446"/></clipPath><clipPath id="c"><path class="a" d="M-556.92,1748.82c-27.69,0-50.13-31.83-50.13-71.1v-851c0-39.27,22.45-71.1,50.13-71.1H-116c27.69,0,50.13,31.83,50.13,71.1v851c0,39.26-22.45,71.1-50.13,71.1H-556.92"/></clipPath><clipPath id="d"><path class="a" d="M-554.38,1743.11c-27.37,0-49.56-31.47-49.56-70.28V831.64c0-38.82,22.19-70.28,49.56-70.28h435.84c27.37,0,49.56,31.47,49.56,70.28v841.19c0,38.81-22.19,70.28-49.56,70.28H-554.38"/></clipPath><clipPath id="e"><path class="a" d="M-551.84,1737.39c-27.05,0-49-31.1-49-69.46V836.54c0-38.36,21.93-69.46,49-69.46h430.76c27.05,0,49,31.1,49,69.46v831.39c0,38.36-21.93,69.46-49,69.46H-551.84"/></clipPath><clipPath id="f"><path class="a" d="M-549.3,1731.67c-26.73,0-48.4-30.73-48.4-68.64V841.44c0-37.91,21.67-68.64,48.4-68.64h425.69c26.73,0,48.4,30.73,48.4,68.64V1663c0,37.91-21.67,68.64-48.4,68.64H-549.3"/></clipPath><clipPath id="g"><path class="a" d="M-546.76,1725.95c-26.41,0-47.83-30.36-47.83-67.82V846.34c0-37.46,21.41-67.82,47.83-67.82h420.61c26.41,0,47.82,30.36,47.82,67.82v811.79c0,37.46-21.41,67.82-47.82,67.82H-546.76"/></clipPath><clipPath id="h"><path class="a" d="M-544.22,1720.23c-26.1,0-47.25-30-47.25-67v-802c0-37,21.15-67,47.25-67h415.53c26.09,0,47.25,30,47.25,67v802c0,37-21.15,67-47.25,67H-544.22"/></clipPath><clipPath id="i"><path class="a" d="M-541.68,1714.51c-25.78,0-46.67-29.63-46.67-66.18V856.14c0-36.55,20.89-66.18,46.67-66.18h410.46c25.78,0,46.67,29.63,46.67,66.18v792.19c0,36.55-20.89,66.18-46.67,66.18H-541.68"/></clipPath><clipPath id="j"><path class="a" d="M-539.14,1708.79c-25.46,0-46.09-29.26-46.09-65.36V861c0-36.1,20.64-65.36,46.09-65.36h405.38c25.46,0,46.09,29.27,46.09,65.36v782.39c0,36.1-20.63,65.36-46.09,65.36H-539.14"/></clipPath></defs><title>basketball_court_ncaa</title><g class="b"><g class="c"><path class="d" d="M419.69,1249.73c1,592-337,1073.52-754.48,1074.89s-757-478-758-1069.93,337-1073.52,754.48-1074.89,757,478,758,1069.93"/><path class="e" d="M311.66,1250.09c.83,507.4-288.89,920.16-646.7,921.34s-648.87-409.68-649.7-917.08S-695.85,334.18-338,333s648.87,409.68,649.7,917.08"/></g><g class="f"><path class="d" d="M411.08,1249.76c1,585.23-333.2,1061.3-745.89,1062.65s-748.4-472.51-749.35-1057.75S-751,193.37-338.27,192s748.4,472.51,749.35,1057.75"/><path class="g" d="M361.24,1249.92c.89,546.21-311,990.55-696.16,991.81s-698.5-441-699.39-987.23,311-990.55,696.16-991.81,698.5,441,699.39,987.23"/><path class="h" d="M311.64,1250.09c.83,507.2-288.78,919.79-646.44,921s-648.61-409.51-649.44-916.71,288.78-919.79,646.44-921,648.61,409.51,649.44,916.71"/><path class="i" d="M261.56,1250.25c.76,468.18-266.56,849-596.71,850.12s-598.72-378-599.48-846.2,266.56-849,596.71-850.12,598.72,378,599.48,846.2"/></g><g class="j"><path class="d" d="M402.71,1249.79c.94,578.49-329.37,1049.08-737.3,1050.42s-739.78-467.07-740.72-1045.57S-745.94,205.56-338,204.22,401.77,671.3,402.71,1249.79"/><path class="g" d="M370.34,1249.89c.9,553.34-315,1003.47-705.24,1004.75s-707.61-446.77-708.52-1000.11,315-1003.47,705.24-1004.75S369.44,696.55,370.34,1249.89"/><path class="h" d="M338.21,1250c.86,528.19-300.73,957.86-673.19,959.08s-675.45-426.46-676.31-954.65S-710.56,296.57-338.1,295.35,337.35,721.81,338.21,1250"/><path class="i" d="M306.32,1250.1c.82,503-286.41,912.24-641.13,913.41s-643.29-406.15-644.11-909.19,286.41-912.24,641.13-913.41S305.5,747.07,306.32,1250.1"/><path class="i" d="M273.95,1250.21c.78,477.88-272.09,866.63-609.07,867.74S-946.25,1732.1-947,1254.22-674.94,387.59-338,386.48s611.12,385.84,611.9,863.73"/><path class="k" d="M241.82,1250.32c.74,452.73-257.76,821-577,822.07s-579-365.54-579.7-818.27,257.76-821,577-822.07,579,365.54,579.7,818.27"/></g><g class="l"><path class="d" d="M394.1,1249.82C395,1821.57,68.57,2286.67-334.61,2288s-731.16-461.63-732.09-1033.38S-741.17,217.76-338,216.43,393.17,678.06,394.1,1249.82"/><path class="g" d="M370.3,1249.89c.9,553.31-315,1003.41-705.2,1004.69s-707.57-446.74-708.48-1000,315-1003.41,705.2-1004.69,707.57,446.74,708.48,1000"/><path class="h" d="M346.74,1250c.87,534.86-304.53,970-681.7,971.2s-684-431.85-684.86-966.71,304.53-970,681.7-971.2,684,431.85,684.86,966.71"/><path class="i" d="M323.18,1250c.84,516.42-294,936.52-658.19,937.71s-660.4-417-661.24-933.38,294-936.51,658.19-937.71,660.4,417,661.24,933.38"/><path class="i" d="M299.62,1250.13c.81,498-283.52,903.07-634.68,904.22s-636.82-402.07-637.63-900S-689.17,351.24-338,350.08s636.82,402.07,637.63,900"/><path class="k" d="M276.06,1250.2c.78,479.53-273,869.62-611.18,870.73s-613.23-387.18-614-866.71S-676.11,384.6-338,383.49s613.23,387.18,614,866.71"/><path class="m" d="M252.49,1250.28c.75,461.09-262.52,836.17-587.67,837.24s-589.64-372.28-590.4-833.37S-663,418-337.9,416.91s589.64,372.28,590.4,833.37"/><path class="n" d="M229.17,1250.36c.72,442.65-252,802.73-564.16,803.75s-566.06-357.39-566.78-800,252-802.73,564.16-803.75,566.06,357.39,566.78,800"/></g><g class="o"><path class="d" d="M385.25,1249.84c.92,565-321.69,1024.63-720.12,1025.94s-722.54-456.19-723.46-1021.2S-736.64,230-338.21,228.64s722.54,456.19,723.46,1021.2"/><path class="g" d="M366.74,1249.9c.9,550.52-313.44,998.36-701.66,999.64s-704-444.49-704.91-995,313.44-998.36,701.66-999.64,704,444.49,704.91,995"/><path class="h" d="M348.24,1250C349.11,1786,43,2222.05-335,2223.29s-685.49-432.8-686.36-968.83,305.19-972.09,683.19-973.33S347.36,713.93,348.24,1250"/><path class="i" d="M330,1250.37c.85,521.55-296.95,945.82-664.73,947s-667-421.1-667.81-942.65,296.95-945.82,664.73-947,667,421.1,667.81,942.65"/><path class="i" d="M311.22,1250.09c.83,507.06-288.7,919.54-646.26,920.72s-648.43-409.4-649.26-916.46S-695.6,334.8-338,333.62,310.39,743,311.22,1250.09"/><path class="k" d="M292.71,1250.15c.8,492.57-280.45,893.27-627.8,894.41S-965,1746.85-965.79,1254.28-685.34,361-338,359.87s629.91,397.7,630.71,890.28"/><path class="m" d="M274.21,1250.21c.78,478.09-272.2,867-609.33,868.1s-611.38-386-612.16-864.09,272.2-867,609.33-868.1,611.38,386,612.16,864.09"/><path class="n" d="M255.7,1250.27c.76,463.6-264,840.72-590.87,841.8S-928,1717.76-928.78,1254.16s264-840.72,590.87-841.8S254.94,786.67,255.7,1250.27"/><path class="p" d="M237.43,1250.67c.73,449.11-255.7,814.45-572.4,815.49S-909.3,1703.55-910,1254.44-654.33,440-337.63,438.95,236.7,801.56,237.43,1250.67"/></g><g class="q"><path class="d" d="M376.64,1249.87c.91,558.27-317.85,1012.41-711.53,1013.7s-713.92-450.75-714.83-1009S-731.87,242.15-338.19,240.85s713.92,450.75,714.83,1009"/><path class="g" d="M361.38,1249.92c.89,546.13-310.94,990.4-696.06,991.67s-698.4-440.95-699.29-987.08S-723,264.1-337.91,262.84s698.4,440.95,699.29,987.08"/><path class="h" d="M345.87,1250.32c.87,534-304,968.39-680.59,969.63s-682.88-431.15-683.75-965.15,304-968.39,680.59-969.63S345,716.32,345.87,1250.32"/><path class="i" d="M330.13,1250C331,1771.89,33,2196.41-335,2197.62s-667.36-421.35-668.21-943.21S-706.08,308-338.08,306.81,329.28,728.16,330.13,1250"/><path class="i" d="M314.63,1250.08c.83,509.73-290.21,924.37-649.66,925.55s-651.84-411.55-652.67-921.28S-697.49,330-338,328.8s651.84,411.55,652.67,921.28"/><path class="k" d="M299.12,1250.13c.81,497.59-283.3,902.37-634.19,903.52S-971.39,1751.89-972.2,1254.3-688.9,351.94-338,350.78s636.32,401.75,637.13,899.34"/><path class="m" d="M283.62,1250.18c.79,485.45-276.39,880.36-618.72,881.48s-620.8-392-621.59-877.41S-680.3,373.89-338,372.77s620.8,392,621.59,877.41"/><path class="n" d="M268.36,1250.23c.77,473.32-269.48,858.35-603.25,859.44S-940.18,1727.52-941,1254.2-671.47,395.85-337.7,394.76s605.28,382.16,606.05,855.47"/><path class="p" d="M252.85,1250.28c.75,461.18-262.57,836.34-587.78,837.41s-589.76-372.36-590.51-833.54,262.57-836.34,587.78-837.41S252.1,789.1,252.85,1250.28"/><path class="r" d="M237.11,1250.33c.73,449-255.66,814.33-572.32,815.37s-574.24-362.56-575-811.6,255.66-814.33,572.32-815.37,574.24,362.56,575,811.6"/><path class="s" d="M221.6,1250.38c.71,436.91-248.75,792.32-556.85,793.33S-894,1691-894.68,1254s248.75-792.32,556.85-793.33S220.89,813.47,221.6,1250.38"/></g><g class="t"><path class="d" d="M368,1249.9c.9,551.53-314,1000.19-702.94,1001.47s-705.3-445.31-706.2-996.84,314-1000.19,702.94-1001.47S367.13,698.37,368,1249.9"/><path class="g" d="M355,1249.94c.88,541.32-308.2,981.67-689.92,982.92s-692.24-437.06-693.13-978.38,308.2-981.67,689.92-982.92S354.1,708.62,355,1249.94"/><path class="h" d="M341.94,1250c.87,531.11-302.39,963.15-676.91,964.38s-679.18-428.81-680-959.92S-712.63,291.3-338.11,290.07s679.18,428.81,680,959.92"/><path class="i" d="M328.89,1250c.85,520.89-296.57,944.62-663.89,945.83s-666.12-420.57-667-941.46S-705.4,309.78-338.08,308.57,328,729.14,328.89,1250"/><path class="i" d="M315.84,1250.07c.83,510.68-290.76,926.1-650.87,927.28s-653.06-412.32-653.89-923S-698.16,328.26-338,327.07s653.06,412.32,653.89,923"/><path class="k" d="M303,1250.12c.82,500.46-284.94,907.58-637.85,908.74s-640-404.07-640.81-904.54,284.94-907.58,637.85-908.74,640,404.07,640.81,904.54"/><path class="u" d="M290,1250.16c.8,490.25-279.13,889.06-624.84,890.19s-626.94-395.83-627.74-886.08,279.13-889.06,624.84-890.19S289.19,759.91,290,1250.16"/><path class="n" d="M276.94,1250.2c.78,480-273.31,870.54-611.82,871.65s-613.87-387.58-614.66-867.62,273.31-870.54,611.82-871.65S276.16,770.16,276.94,1250.2"/><path class="p" d="M263.89,1250.24c.77,469.82-267.5,852-598.8,853.1S-935.72,1724-936.49,1254.19s267.5-852,598.8-853.1,600.81,379.34,601.58,849.16"/><path class="r" d="M250.6,1250.29c.75,459.61-261.68,833.49-585.78,834.56s-587.75-371.09-588.5-830.7S-662,420.65-337.9,419.59s587.75,371.09,588.5,830.7"/><path class="s" d="M237.56,1250.33c.73,449.4-255.87,815-572.77,816S-909.9,1703.5-910.63,1254.1s255.87-815,572.77-816,574.69,362.84,575.43,812.24"/><path class="v" d="M224.51,1250.37c.72,439.18-250.05,796.45-559.75,797.46s-561.63-354.6-562.35-793.78,250.05-796.45,559.75-797.46,561.63,354.6,562.35,793.78"/></g><g class="w"><path class="d" d="M359.42,1249.93c.89,544.79-310.18,988-694.35,989.23s-696.68-439.86-697.57-984.66,310.18-988,694.35-989.23,696.68,439.86,697.57,984.66"/><path class="g" d="M348.2,1250C349.07,1786,43,2222-335,2223.24s-685.45-432.77-686.32-968.78,305.18-972,683.15-973.27S347.32,714,348.2,1250"/><path class="h" d="M337.21,1250.34c.86,527.22-300.17,956.1-672,957.32s-674.21-425.68-675.07-952.89,300.17-956.1,672-957.32,674.21,425.68,675.07,952.89"/><path class="i" d="M325.75,1250C326.59,1768.47,30.58,2190.2-335,2191.4s-663-418.58-663.82-937S-703.65,314.23-338.07,313s663,418.58,663.82,937"/><path class="i" d="M314.52,1250.08c.83,509.64-290.17,924.23-649.55,925.41S-986.77,1764-987.6,1254.35-697.43,330.13-338,328.95s651.74,411.49,652.57,921.13"/><path class="k" d="M303.54,1250.11c.82,500.86-285.16,908.29-638.35,909.45s-640.5-404.39-641.32-905.25S-691,346-337.78,344.86s640.5,404.39,641.32,905.25"/><path class="u" d="M292.31,1250.15c.8,492.07-280.16,892.36-627.15,893.5s-629.26-397.3-630.07-889.37,280.16-892.36,627.15-893.5,629.26,397.3,630.07,889.37"/><path class="n" d="M280.85,1250.19c.79,483.28-275.16,876.42-616,877.54s-618-390.2-618.81-873.49S-678.76,377.82-338,376.7s618,390.2,618.81,873.49"/><path class="p" d="M269.62,1250.22c.77,474.5-270.16,860.49-604.76,861.59S-941.92,1728.7-942.7,1254.2s270.16-860.49,604.76-861.58,606.79,383.11,607.56,857.6"/><path class="r" d="M258.64,1250.6c.76,465.71-265.15,844.55-593.56,845.63s-595.55-376-596.31-841.72S-666.08,410-337.68,408.88s595.55,376,596.31,841.72"/><path class="s" d="M247.17,1250.3C247.92,1707.22-13,2078.91-335.19,2080s-584.31-368.92-585.06-825.84S-660.1,425.51-337.89,424.46,246.42,793.38,247.17,1250.3"/><path class="x" d="M235.95,1250.33c.73,448.14-255.15,812.68-571.16,813.72s-573.08-361.82-573.81-810,255.15-812.68,571.16-813.72,573.08,361.82,573.81,810"/><path class="y" d="M225,1250.37c.72,439.35-250.14,796.75-560,797.76s-561.84-354.73-562.56-794.08,250.14-796.75,560-797.76S224.24,811,225,1250.37"/></g><g class="z"><path class="d" d="M350.81,1250c.88,538.05-306.34,975.75-685.76,977s-688.07-434.42-688.94-972.48,306.34-975.75,685.76-977S349.94,711.9,350.81,1250"/><path class="g" d="M341,1250c.87,530.37-302,961.81-676,963s-678.24-428.22-679.1-958.59,302-961.81,676-963S340.13,719.62,341,1250"/><path class="h" d="M331.42,1250.36c.85,522.68-297.59,947.87-666.17,949.08s-668.41-422-669.26-944.69,297.59-947.87,666.17-949.08,668.41,422,669.26,944.69"/><path class="i" d="M321.36,1250.05C322.2,1765,28.14,2184-335,2185.17s-658.58-415.81-659.42-930.8,293.21-933.93,656.37-935.12,658.58,415.81,659.42,930.8"/><path class="i" d="M311.54,1250.09c.83,507.31-288.84,920-646.57,921.16s-648.75-409.6-649.58-916.91,288.84-920,646.57-921.16,648.75,409.6,649.58,916.91"/><path class="k" d="M302,1250.12c.82,499.62-284.46,906-636.78,907.21s-638.92-403.39-639.73-903,284.46-906,636.78-907.21S301.14,750.5,302,1250.12"/><path class="u" d="M291.9,1250.15c.8,491.93-280.08,892.11-627,893.25S-964.17,1746.21-965,1254.28-684.89,362.17-338,361,291.09,758.22,291.9,1250.15"/><path class="n" d="M282.32,1250.18c.79,484.25-275.71,878.17-617.19,879.29s-619.26-391-620-875.23S-679.21,376.07-337.73,375s619.26,391,620,875.23"/><path class="p" d="M272.26,1250.22C273,1726.78.93,2114.45-335.13,2115.55s-609.43-384.78-610.21-861.34S-674,390-337.95,388.88s609.43,384.78,610.21,861.34"/><path class="r" d="M262.44,1250.25c.77,468.88-267,850.29-597.59,851.38s-599.6-378.57-600.37-847.44,267-850.29,597.59-851.38,599.6,378.57,600.37,847.44"/><path class="s" d="M252.86,1250.62C253.61,1711.81-9.72,2087-334.93,2088s-589.77-372.36-590.52-833.55,262.58-836.35,587.8-837.42,589.77,372.36,590.52,833.55"/><path class="aa" d="M242.8,1250.31c.74,453.5-258.2,822.41-578,823.46s-579.94-366.16-580.68-819.66,258.2-822.41,578-823.46S242.06,796.81,242.8,1250.31"/><path class="y" d="M233,1250.34c.73,445.82-253.83,808.47-568.2,809.51s-570.11-360-570.84-805.77,253.83-808.47,568.2-809.51,570.11,360,570.84,805.77"/><path class="ab" d="M223.4,1250.38C224.12,1688.51-26,2044.91-335,2045.93s-560.28-353.75-561-791.87S-646.55,459.52-337.59,458.5s560.28,353.75,561,791.87"/></g></g><rect class="ac" x="11.75" y="15" width="462.5" height="431.99"/><polyline class="ac" points="474.25 15 295.96 15 193.25 15 11.75 15"/><path class="ac" d="M193.22,16.8c0-.59,0-1.2,0-1.8H296c0,.59,0,1.2,0,1.8a51.39,51.39,0,1,1-102.78,0Z"/><rect class="ac" x="193.22" y="291.66" width="102.78" height="154.17"/><circle class="ac" cx="244.61" cy="292.73" r="51.39"/><path class="ac" d="M77.78,325c34.18-61.67,96.1-102.88,166.83-102.88S377.26,263.28,411.44,325l.18,120.87h-334Z"/><circle class="ac" cx="243" cy="419.96" r="6.42"/><line class="ac" x1="256.25" y1="427.99" x2="229.75" y2="427.99"/><path class="ac" d="M258.21,421a15.79,15.79,0,1,0-30.39.08"/><line class="ad" x1="298.54" y1="385.7" x2="298.54" y2="374.99"/><line class="ad" x1="190.93" y1="385.7" x2="190.93" y2="374.99"/><line class="ac" x1="192.68" y1="356.26" x2="183.31" y2="356.26"/><line class="ac" x1="306.03" y1="356.26" x2="296.66" y2="356.26"/><line class="ac" x1="192.61" y1="328.15" x2="183.25" y2="328.15"/><line class="ac" x1="305.96" y1="328.15" x2="296.6" y2="328.15"/><line class="ac" x1="192.61" y1="298.04" x2="183.25" y2="298.04"/><line class="ac" x1="305.96" y1="298.04" x2="296.6" y2="298.04"/></svg>