<svg xmlns="http://www.w3.org/2000/svg" xmlns:xlink="http://www.w3.org/1999/xlink" viewBox="0 0 500 940"><defs><style>.a,.b,.c{fill:none;}.b,.c{stroke:#000;stroke-miterlimit:10;}.b{stroke-width:2px;}.c{stroke-width:4px;}.d{clip-path:url(#a);}.e{clip-path:url(#b);}.f{fill:#d09551;}.g{fill:#d29752;}.h{fill:#d29853;}.i{fill:#d29955;}.j{clip-path:url(#c);}.k{fill:#d09752;}.l{fill:#d29a56;}.m{fill:#d29a57;}.n{fill:#d39b58;}.o{fill:#d59e5a;}.p{clip-path:url(#d);}.q{fill:#d29b57;}.r{fill:#d39b59;}.s{fill:#d59e5b;}.t{fill:#d59f5c;}.u{clip-path:url(#e);}.v{fill:#d6a05d;}.w{fill:#d6a05e;}.x{fill:#d7a15f;}.y{fill:#d7a260;}.z{clip-path:url(#f);}.aa{fill:#d69f5d;}.ab{fill:#d6a15f;}.ac{fill:#d7a361;}.ad{fill:#d9a463;}.ae{fill:#d9a564;}.af{clip-path:url(#g);}.ag{fill:#d9a562;}.ah{fill:#d9a563;}.ai{fill:#d9a664;}.aj{fill:#d9a665;}.ak{fill:#daa866;}.al{clip-path:url(#h);}.am{fill:#d9a764;}.an{fill:#daa967;}.ao{fill:#daaa68;}.ap{fill:#dbaa69;}.aq{fill:#dbac6a;}.ar{clip-path:url(#i);}.as{fill:#dbab69;}.at{fill:#dbab6a;}.au{fill:#dbac6b;}.av{fill:#dcac6c;}.aw{fill:#dcae6d;}.ax{clip-path:url(#j);}.ay{fill:#d59f5d;}.az{fill:#d8a562;}.ba{fill:#dcae6e;}.bb{fill:#ddaf6f;}.bc{fill:#dcb070;}.bd{clip-path:url(#k);}.be{clip-path:url(#l);}.bf{clip-path:url(#m);}.bg{clip-path:url(#n);}.bh{clip-path:url(#o);}.bi{clip-path:url(#p);}.bj{clip-path:url(#q);}.bk{clip-path:url(#r);}.bl{clip-path:url(#s);}.bm{clip-path:url(#t);}</style><clipPath id="a"><rect class="a" y="1020" width="500" height="940"/></clipPath><clipPath id="b"><path class="a" d="M27.55,1993.55c-28,0-50.71-32.2-50.71-71.92V1060.85c0-39.72,22.7-71.92,50.71-71.92h446c28,0,50.71,32.2,50.71,71.92v860.79c0,39.71-22.7,71.92-50.71,71.92h-446"/></clipPath><clipPath id="c"><path class="a" d="M30.08,1987.83C2.4,1987.83-20,1956-20,1916.73v-851c0-39.27,22.45-71.1,50.13-71.1H471c27.69,0,50.13,31.83,50.13,71.1v851c0,39.26-22.45,71.1-50.13,71.1H30.08"/></clipPath><clipPath id="d"><path class="a" d="M32.62,1982.11c-27.37,0-49.56-31.47-49.56-70.28V1070.65c0-38.82,22.19-70.28,49.56-70.28H468.47c27.37,0,49.56,31.47,49.56,70.28v841.19c0,38.81-22.19,70.28-49.56,70.28H32.62"/></clipPath><clipPath id="e"><path class="a" d="M35.16,1976.39c-27.05,0-49-31.1-49-69.46V1075.55c0-38.36,21.93-69.46,49-69.46H465.93c27.05,0,49,31.1,49,69.46v831.39c0,38.36-21.93,69.46-49,69.46H35.16"/></clipPath><clipPath id="f"><path class="a" d="M37.7,1970.67c-26.73,0-48.4-30.73-48.4-68.64V1080.44c0-37.91,21.67-68.64,48.4-68.64H463.39c26.73,0,48.4,30.73,48.4,68.64V1902c0,37.91-21.67,68.64-48.4,68.64H37.7"/></clipPath><clipPath id="g"><path class="a" d="M40.24,1965c-26.41,0-47.83-30.36-47.83-67.82V1085.34c0-37.46,21.41-67.82,47.83-67.82H460.85c26.41,0,47.82,30.36,47.82,67.82v811.79c0,37.46-21.41,67.82-47.82,67.82H40.24"/></clipPath><clipPath id="h"><path class="a" d="M42.78,1959.24c-26.1,0-47.25-30-47.25-67v-802c0-37,21.15-67,47.25-67H458.31c26.09,0,47.25,30,47.25,67v802c0,37-21.15,67-47.25,67H42.78"/></clipPath><clipPath id="i"><path class="a" d="M45.32,1953.52c-25.78,0-46.67-29.63-46.67-66.18V1095.14c0-36.55,20.89-66.18,46.67-66.18H455.77c25.78,0,46.67,29.63,46.67,66.18v792.19c0,36.55-20.89,66.18-46.67,66.18H45.32"/></clipPath><clipPath id="j"><path class="a" d="M47.86,1947.8c-25.46,0-46.09-29.26-46.09-65.36V1100c0-36.1,20.64-65.36,46.09-65.36H453.23c25.46,0,46.09,29.27,46.09,65.36v782.39c0,36.1-20.63,65.36-46.09,65.36H47.86"/></clipPath><clipPath id="k"><rect class="a" x="-580" y="1020" width="500" height="940"/></clipPath><clipPath id="l"><path class="a" d="M-552.45,1993.55c-28,0-50.71-32.2-50.71-71.92V1060.85c0-39.72,22.7-71.92,50.71-71.92h446c28,0,50.71,32.2,50.71,71.92v860.79c0,39.71-22.7,71.92-50.71,71.92h-446"/></clipPath><clipPath id="m"><path class="a" d="M-549.92,1987.83c-27.69,0-50.13-31.83-50.13-71.1v-851c0-39.27,22.45-71.1,50.13-71.1H-109c27.69,0,50.13,31.83,50.13,71.1v851c0,39.26-22.45,71.1-50.13,71.1H-549.92"/></clipPath><clipPath id="n"><path class="a" d="M-547.38,1982.11c-27.37,0-49.56-31.47-49.56-70.28V1070.65c0-38.82,22.19-70.28,49.56-70.28h435.84c27.37,0,49.56,31.47,49.56,70.28v841.19c0,38.81-22.19,70.28-49.56,70.28H-547.38"/></clipPath><clipPath id="o"><path class="a" d="M-544.84,1976.39c-27.05,0-49-31.1-49-69.46V1075.55c0-38.36,21.93-69.46,49-69.46h430.76c27.05,0,49,31.1,49,69.46v831.39c0,38.36-21.93,69.46-49,69.46H-544.84"/></clipPath><clipPath id="p"><path class="a" d="M-542.3,1970.67c-26.73,0-48.4-30.73-48.4-68.64V1080.44c0-37.91,21.67-68.64,48.4-68.64h425.69c26.73,0,48.4,30.73,48.4,68.64V1902c0,37.91-21.67,68.64-48.4,68.64H-542.3"/></clipPath><clipPath id="q"><path class="a" d="M-539.76,1965c-26.41,0-47.83-30.36-47.83-67.82V1085.34c0-37.46,21.41-67.82,47.83-67.82h420.61c26.41,0,47.82,30.36,47.82,67.82v811.79c0,37.46-21.41,67.82-47.82,67.82H-539.76"/></clipPath><clipPath id="r"><path class="a" d="M-537.22,1959.24c-26.1,0-47.25-30-47.25-67v-802c0-37,21.15-67,47.25-67h415.53c26.09,0,47.25,30,47.25,67v802c0,37-21.15,67-47.25,67H-537.22"/></clipPath><clipPath id="s"><path class="a" d="M-534.68,1953.52c-25.78,0-46.67-29.63-46.67-66.18V1095.14c0-36.55,20.89-66.18,46.67-66.18h410.46c25.78,0,46.67,29.63,46.67,66.18v792.19c0,36.55-20.89,66.18-46.67,66.18H-534.68"/></clipPath><clipPath id="t"><path class="a" d="M-532.14,1947.8c-25.46,0-46.09-29.26-46.09-65.36V1100c0-36.1,20.64-65.36,46.09-65.36h405.38c25.46,0,46.09,29.27,46.09,65.36v782.39c0,36.1-20.63,65.36-46.09,65.36H-532.14"/></clipPath></defs><title>basketball_court_ncaa</title><rect class="b" x="13.99" y="29.13" width="472.01" height="881.75"/><line class="b" x1="13.99" y1="470" x2="486.01" y2="470"/><circle class="b" cx="248.36" cy="468.16" r="52.45"/><rect class="b" x="195.91" y="30.31" width="104.89" height="157.34"/><circle class="b" cx="248.36" cy="186.56" r="52.45"/><path class="b" d="M418.62,153.67c-34.88,62.94-98.08,105-170.26,105S113,216.61,78.1,153.67L77.91,30.31h340.9Z"/><circle class="b" cx="250" cy="56.71" r="6.56"/><line class="b" x1="236.48" y1="48.52" x2="263.52" y2="48.52"/><path class="b" d="M234.48,55.63a16.12,16.12,0,1,0,31-.08"/><line class="c" x1="193.27" y1="91.68" x2="193.27" y2="102.6"/><line class="c" x1="303.18" y1="91.68" x2="303.18" y2="102.6"/><line class="b" x1="301.35" y1="121.73" x2="310.91" y2="121.73"/><line class="b" x1="185.67" y1="121.73" x2="195.23" y2="121.73"/><line class="b" x1="301.42" y1="150.41" x2="310.98" y2="150.41"/><line class="b" x1="185.74" y1="150.41" x2="195.3" y2="150.41"/><line class="b" x1="301.42" y1="181.14" x2="310.98" y2="181.14"/><line class="b" x1="185.74" y1="181.14" x2="195.3" y2="181.14"/><rect class="b" x="195.91" y="753.53" width="104.89" height="157.34"/><circle class="b" cx="248.36" cy="754.63" r="52.45"/><path class="b" d="M78.1,787.51c34.88-62.94,98.08-105,170.26-105s135.38,42.06,170.26,105l.19,123.36H77.91Z"/><circle class="b" cx="246.72" cy="884.47" r="6.56"/><line class="b" x1="260.24" y1="892.67" x2="233.2" y2="892.67"/><path class="b" d="M262.24,885.55a16.12,16.12,0,1,0-31,.08"/><line class="c" x1="303.45" y1="849.51" x2="303.45" y2="838.58"/><line class="c" x1="193.54" y1="849.51" x2="193.54" y2="838.58"/><line class="b" x1="195.37" y1="819.46" x2="185.81" y2="819.46"/><line class="b" x1="311.05" y1="819.46" x2="301.49" y2="819.46"/><line class="b" x1="195.3" y1="790.78" x2="185.74" y2="790.78"/><line class="b" x1="310.98" y1="790.78" x2="301.42" y2="790.78"/><line class="b" x1="195.3" y1="760.05" x2="185.74" y2="760.05"/><line class="b" x1="310.98" y1="760.05" x2="301.42" y2="760.05"/><g class="d"><g class="e"><path class="f" d="M1006.69,1488.74c1,592-337,1073.52-754.48,1074.89s-757-478-758-1069.93,337-1073.52,754.48-1074.89,757,478,758,1069.93"/><path class="g" d="M898.66,1489.09c.83,507.4-288.89,920.16-646.7,921.34s-648.87-409.68-649.7-917.08S-108.85,573.18,249,572s648.87,409.68,649.7,917.08"/><path class="h" d="M790.63,1489.45c.69,422.84-240.74,766.8-538.91,767.78S-289,1915.83-289.7,1493-49,726.19,249.21,725.21s540.73,341.4,541.42,764.23"/><path class="i" d="M682.83,1489.8c.55,338.27-192.59,613.44-431.13,614.23s-432.58-273.12-433.13-611.39S11.16,879.2,249.7,878.41s432.58,273.12,433.13,611.39"/></g><g class="j"><path class="f" d="M998.08,1488.76c1,585.23-333.2,1061.3-745.89,1062.65S-496.2,2078.9-497.16,1493.67-164,432.37,248.73,431s748.4,472.51,749.35,1057.75"/><path class="k" d="M948.24,1488.93c.89,546.21-311,990.55-696.16,991.81s-698.5-441-699.39-987.23S-136.33,503,248.85,501.7s698.5,441,699.39,987.23"/><path class="h" d="M898.64,1489.09c.83,507.2-288.78,919.79-646.44,921s-648.61-409.51-649.44-916.71,288.78-919.79,646.44-921,648.61,409.51,649.44,916.71"/><path class="i" d="M848.56,1489.26c.76,468.18-266.56,849-596.71,850.12s-598.72-378-599.48-846.2,266.56-849,596.71-850.12,598.72,378,599.48,846.2"/><path class="l" d="M799,1489.42c.7,429.17-244.35,778.29-547,779.28S-296.85,1922.19-297.55,1493s244.35-778.29,547-779.28S798.26,1060.25,799,1489.42"/><path class="m" d="M748.87,1489.58c.64,390.15-222.14,707.53-497.26,708.44S-247.32,1883-248,1492.86-25.82,785.32,249.31,784.42s498.93,315,499.57,705.16"/><path class="n" d="M699,1489.75c.57,351.14-199.92,636.78-447.53,637.59s-449-283.51-449.61-634.65S1.81,855.91,249.42,855.1s449,283.51,449.61,634.65"/><path class="o" d="M649.43,1489.91c.51,312.12-177.71,566-397.81,566.75s-399.14-252-399.65-564.13,177.71-566,397.81-566.75,399.14,252,399.65,564.13"/></g><g class="p"><path class="f" d="M989.71,1488.79c.94,578.49-329.37,1049.08-737.3,1050.42s-739.78-467.07-740.72-1045.57S-158.94,444.57,249,443.23,988.77,910.3,989.71,1488.79"/><path class="k" d="M957.34,1488.9c.9,553.34-315,1003.47-705.24,1004.75s-707.61-446.77-708.52-1000.11,315-1003.47,705.24-1004.75S956.44,935.56,957.34,1488.9"/><path class="h" d="M925.21,1489c.86,528.19-300.73,957.86-673.19,959.08s-675.45-426.46-676.31-954.65S-123.56,535.58,248.9,534.36,924.35,960.82,925.21,1489"/><path class="i" d="M893.32,1489.11c.82,503-286.41,912.24-641.13,913.41s-643.29-406.15-644.11-909.19,286.41-912.24,641.13-913.41S892.5,986.07,893.32,1489.11"/><path class="i" d="M860.95,1489.21c.78,477.88-272.09,866.63-609.07,867.74S-359.25,1971.11-360,1493.22-87.94,626.59,249,625.49s611.12,385.84,611.9,863.73"/><path class="l" d="M828.82,1489.32c.74,452.73-257.76,821-577,822.07s-579-365.54-579.7-818.27,257.76-821,577-822.07,579,365.54,579.7,818.27"/><path class="q" d="M796.93,1489.43c.7,427.58-243.44,775.41-545,776.4S-294.83,1920.59-295.52,1493s243.44-775.41,545-776.4,546.79,345.23,547.49,772.81"/><path class="r" d="M764.56,1489.53c.66,402.43-229.12,729.79-512.91,730.73S-263,1895.34-263.63,1492.91-34.51,763.11,249.27,762.18,763.9,1087.1,764.56,1489.53"/><path class="o" d="M732.43,1489.64c.62,377.28-214.8,684.18-480.85,685.06S-230.89,1870.08-231.5,1492.8-16.7,808.62,249.35,807.75s482.46,304.61,483.08,681.89"/><path class="s" d="M700.54,1489.74c.57,352.13-200.48,638.57-448.79,639.39s-450.3-284.31-450.88-636.43S1.35,854.13,249.66,853.31,700,1137.62,700.54,1489.74"/><path class="t" d="M668.16,1489.85c.53,327-186.16,593-416.74,593.72s-418.14-264-418.67-591,186.16-593,416.74-593.72,418.14,264,418.67,591"/></g><g class="u"><path class="f" d="M981.1,1488.82C982,2060.57,655.57,2525.68,252.39,2527S-478.77,2065.37-479.7,1493.62-154.17,456.76,249,455.44,980.17,917.07,981.1,1488.82"/><path class="k" d="M957.3,1488.9c.9,553.31-315,1003.41-705.2,1004.69s-707.57-446.74-708.48-1000,315-1003.41,705.2-1004.69S956.4,935.59,957.3,1488.9"/><path class="h" d="M933.74,1489c.87,534.86-304.53,970-681.7,971.2s-684-431.85-684.86-966.71,304.53-970,681.7-971.2,684,431.85,684.86,966.71"/><path class="i" d="M910.18,1489.05c.84,516.42-294,936.52-658.19,937.71s-660.4-417-661.24-933.38,294-936.51,658.19-937.71,660.4,417,661.24,933.38"/><path class="i" d="M886.62,1489.13c.81,498-283.52,903.07-634.68,904.22s-636.82-402.07-637.63-900S-102.17,590.24,249,589.09s636.82,402.07,637.63,900"/><path class="l" d="M863.06,1489.21c.78,479.53-273,869.62-611.18,870.73s-613.23-387.18-614-866.71S-89.11,623.61,249,622.5s613.23,387.18,614,866.71"/><path class="n" d="M839.49,1489.29c.75,461.09-262.52,836.17-587.67,837.24s-589.64-372.28-590.4-833.37S-76,657,249.1,655.91s589.64,372.28,590.4,833.37"/><path class="r" d="M816.17,1489.36c.72,442.65-252,802.73-564.16,803.75s-566.06-357.39-566.78-800,252-802.73,564.16-803.75,566.06,357.39,566.78,800"/><path class="o" d="M792.61,1489.44c.69,424.2-241.52,769.28-540.66,770.26S-290.52,1917.2-291.21,1493-49.69,723.72,249.45,722.74s542.47,342.5,543.17,766.7"/><path class="s" d="M769.05,1489.52c.66,405.76-231,735.83-517.15,736.77S-267,1898.68-267.65,1492.92s231-735.83,517.15-736.77,518.89,327.61,519.55,733.37"/><path class="t" d="M745.25,1489.59c.63,387.32-220.52,702.39-493.64,703.28s-495.3-312.72-495.93-700S-23.81,790.46,249.32,789.56s495.3,312.72,495.93,700"/><path class="v" d="M721.69,1489.67c.6,368.87-210,668.94-470.14,669.79s-471.72-297.83-472.32-666.7S-10.75,823.83,249.37,823s471.72,297.83,472.32,666.7"/><path class="w" d="M698.13,1489.75c.57,350.43-199.52,635.49-446.63,636.3s-448.13-282.94-448.7-633.36S2.31,857.2,249.42,856.39s448.13,282.94,448.7,633.36"/><path class="x" d="M674.57,1489.83c.54,332-189,602-423.12,602.81s-424.54-268-425.09-600,189-602,423.12-602.81,424.54,268,425.09,600"/><path class="y" d="M651,1489.9c.51,313.54-178.52,568.6-399.62,569.32s-401-253.15-401.47-566.69S28.43,923.94,249.53,923.21s401,253.15,401.47,566.69"/></g><g class="z"><path class="f" d="M972.25,1488.85c.92,565-321.69,1024.63-720.12,1025.94s-722.54-456.19-723.46-1021.2S-149.64,469,248.79,467.65s722.54,456.19,723.46,1021.2"/><path class="k" d="M953.74,1488.91c.9,550.52-313.44,998.36-701.66,999.64s-704-444.49-704.91-995,313.44-998.36,701.66-999.64,704,444.49,704.91,995"/><path class="h" d="M935.24,1489C936.11,2025,630,2461.06,252,2462.3s-685.49-432.8-686.36-968.83,305.19-972.09,683.19-973.33S934.36,952.93,935.24,1489"/><path class="i" d="M917,1489.37c.85,521.55-296.95,945.82-664.73,947s-667-421.1-667.81-942.65,296.95-945.82,664.73-947,667,421.1,667.81,942.65"/><path class="i" d="M898.22,1489.09c.83,507.06-288.7,919.54-646.26,920.72s-648.43-409.4-649.26-916.46S-108.6,573.8,249,572.63,897.39,982,898.22,1489.09"/><path class="l" d="M879.71,1489.15c.8,492.57-280.45,893.27-627.8,894.41S-378,1985.86-378.79,1493.29-98.34,600,249,598.87s629.91,397.7,630.71,890.28"/><path class="n" d="M861.21,1489.21c.78,478.09-272.2,867-609.33,868.1s-611.38-386-612.16-864.09,272.2-867,609.33-868.1,611.38,386,612.16,864.09"/><path class="r" d="M842.7,1489.27c.76,463.6-264,840.72-590.87,841.8S-341,1956.76-341.78,1493.16s264-840.72,590.87-841.8,592.85,374.31,593.61,837.91"/><path class="o" d="M824.43,1489.68c.73,449.11-255.7,814.45-572.4,815.49S-322.3,1942.56-323,1493.44-67.33,679,249.37,678s574.33,362.61,575.06,811.72"/><path class="s" d="M805.69,1489.4c.71,434.62-247.45,788.18-553.94,789.19S-304.05,1927.67-304.76,1493-57.31,704.86,249.18,703.86,805,1054.77,805.69,1489.4"/><path class="t" d="M787.18,1489.46c.69,420.14-239.21,761.91-535.47,762.88s-537.27-339.22-538-759.35S-47,731.07,249.22,730.1s537.27,339.22,538,759.35"/><path class="aa" d="M768.67,1489.52c.66,405.65-231,735.63-517,736.57s-518.75-327.52-519.41-733.17,231-735.63,517-736.57S768,1083.87,768.67,1489.52"/><path class="w" d="M750.16,1489.58c.64,391.16-222.71,709.36-498.54,710.27s-500.22-315.82-500.86-707S-26.53,783.5,249.3,782.59s500.22,315.82,500.86,707"/><path class="ab" d="M731.9,1489.64c.62,376.67-214.46,683.09-480.08,684s-481.69-304.13-482.31-680.8S-16,809.71,249.59,808.84,731.28,1113,731.9,1489.64"/><path class="y" d="M713.15,1489.7c.59,362.19-206.21,656.82-461.62,657.65s-463.17-292.43-463.76-654.62S-6,835.92,249.39,835.08s463.17,292.43,463.76,654.62"/><path class="ac" d="M694.88,1489.76c.57,347.7-198,630.54-443.15,631.35s-444.64-280.73-445.21-628.43,198-630.54,443.15-631.35,444.64,280.73,445.21,628.43"/><path class="ad" d="M676.13,1489.82c.54,333.21-189.72,604.27-424.69,605s-426.11-269-426.66-602.25,189.72-604.27,424.69-605,426.11,269,426.66,602.25"/><path class="ae" d="M657.63,1489.88c.52,318.72-181.47,578-406.22,578.74s-407.59-257.34-408.11-576.06,181.47-578,406.22-578.74,407.59,257.34,408.11,576.06"/></g><g class="af"><path class="f" d="M963.64,1488.88c.91,558.27-317.85,1012.41-711.53,1013.7s-713.92-450.75-714.83-1009S-144.87,481.15,248.81,479.86s713.92,450.75,714.83,1009"/><path class="k" d="M948.38,1488.93c.89,546.13-310.94,990.4-696.06,991.67S-446.08,2039.64-447,1493.51-136,503.11,249.09,501.84s698.4,440.95,699.29,987.08"/><path class="h" d="M932.87,1489.32c.87,534-304,968.39-680.59,969.63S-430.6,2027.8-431.47,1493.8s304-968.39,680.59-969.63S932,955.32,932.87,1489.32"/><path class="i" d="M917.13,1489C918,2010.89,620,2435.41,252,2436.62s-667.36-421.35-668.21-943.21S-119.08,547,248.92,545.82,916.28,967.17,917.13,1489"/><path class="i" d="M901.63,1489.08c.83,509.73-290.21,924.37-649.66,925.55s-651.84-411.55-652.67-921.28S-110.49,569,249,567.8s651.84,411.55,652.67,921.28"/><path class="l" d="M886.12,1489.13c.81,497.59-283.3,902.37-634.19,903.52S-384.39,1990.9-385.2,1493.31-101.9,590.94,249,589.79s636.32,401.75,637.13,899.34"/><path class="n" d="M870.62,1489.18c.79,485.45-276.39,880.36-618.72,881.48s-620.8-392-621.59-877.41S-93.3,612.9,249,611.78s620.8,392,621.59,877.41"/><path class="r" d="M855.36,1489.23c.77,473.32-269.48,858.35-603.25,859.44S-353.18,1966.52-354,1493.2-84.47,634.86,249.3,633.76s605.28,382.16,606.05,855.47"/><path class="o" d="M839.85,1489.28c.75,461.18-262.57,836.34-587.78,837.41s-589.76-372.36-590.51-833.54S-75.87,656.82,249.34,655.75,839.1,1028.1,839.85,1489.28"/><path class="s" d="M824.11,1489.34c.73,449-255.66,814.33-572.32,815.37s-574.24-362.56-575-811.6S-67.52,678.77,249.13,677.73s574.24,362.56,575,811.6"/><path class="t" d="M808.6,1489.39c.71,436.91-248.75,792.32-556.85,793.33S-307,1930-307.68,1493.05-58.93,700.73,249.17,699.72s558.72,352.76,559.43,789.67"/><path class="v" d="M793.1,1489.44c.69,424.77-241.85,770.31-541.38,771.3s-543.2-343-543.89-767.73S-50.33,722.69,249.2,721.71s543.2,343,543.89,767.73"/><path class="w" d="M777.59,1489.49c.67,412.63-234.94,748.3-525.91,749.26S-276,1905.59-276.67,1492.95s234.94-748.3,525.91-749.26,527.68,333.16,528.35,745.8"/><path class="ab" d="M762.33,1489.54c.65,400.5-228,726.29-510.44,727.22S-260.27,1893.4-260.93,1492.9s228-726.29,510.44-727.22S761.68,1089,762.33,1489.54"/><path class="y" d="M746.83,1489.59c.63,388.36-221.12,704.29-495,705.18s-496.64-313.56-497.27-701.93,221.12-704.29,495-705.18,496.64,313.56,497.27,701.93"/><path class="ac" d="M731.08,1489.64c.61,376.23-214.21,682.28-479.51,683.15s-481.12-303.76-481.73-680S-16,810.52,249.35,809.65s481.12,303.76,481.73,680"/><path class="ag" d="M715.58,1489.69c.59,364.09-207.3,660.27-464,661.11s-465.6-294-466.19-658.06,207.3-660.27,464-661.11,465.6,294,466.19,658.06"/><path class="ah" d="M700.07,1489.74c.57,352-200.39,638.26-448.57,639.07s-450.08-284.17-450.65-636.12S1.23,854.44,249.42,853.62s450.08,284.17,450.65,636.12"/><path class="ai" d="M684.57,1489.79c.55,339.82-193.48,616.25-433.1,617s-434.56-274.37-435.11-614.19,193.48-616.25,433.1-617S684,1150,684.57,1489.79"/><path class="aj" d="M669.31,1489.84c.54,327.68-186.57,594.24-417.64,595s-419-264.57-419.58-592.25,186.57-594.24,417.64-595,419,264.57,419.58,592.25"/><path class="ak" d="M653.8,1489.9c.52,315.54-179.66,572.23-402.17,573s-403.52-254.77-404-570.31,179.66-572.23,402.17-573,403.52,254.77,404,570.31"/></g><g class="al"><path class="f" d="M955,1488.91c.9,551.53-314,1000.19-702.94,1001.47s-705.3-445.31-706.2-996.84,314-1000.19,702.94-1001.47S954.13,937.37,955,1488.91"/><path class="k" d="M942,1488.95c.88,541.32-308.2,981.67-689.92,982.92s-692.24-437.06-693.13-978.38,308.2-981.67,689.92-982.92S941.1,947.63,942,1488.95"/><path class="h" d="M928.94,1489c.87,531.11-302.39,963.15-676.91,964.38s-679.18-428.81-680-959.92S-125.63,530.3,248.89,529.07s679.18,428.81,680,959.92"/><path class="i" d="M915.89,1489c.85,520.89-296.57,944.62-663.89,945.83S-414.12,2014.3-415,1493.4-118.4,548.78,248.92,547.57,915,968.14,915.89,1489"/><path class="i" d="M902.84,1489.08c.83,510.68-290.76,926.1-650.87,927.28s-653.06-412.32-653.89-923S-111.16,567.26,249,566.08,902,978.4,902.84,1489.08"/><path class="l" d="M890,1489.12c.82,500.46-284.94,907.58-637.85,908.74s-640-404.07-640.81-904.54,284.94-907.58,637.85-908.74,640,404.07,640.81,904.54"/><path class="q" d="M877,1489.16c.8,490.25-279.13,889.06-624.84,890.19s-626.94-395.83-627.74-886.08S-96.46,604.22,249.25,603.08,876.19,998.91,877,1489.16"/><path class="r" d="M863.94,1489.21c.78,480-273.31,870.54-611.82,871.65s-613.87-387.58-614.66-867.62S-89.23,622.7,249.28,621.59s613.87,387.58,614.66,867.62"/><path class="o" d="M850.89,1489.25c.77,469.82-267.5,852-598.8,853.1S-348.72,1963-349.49,1493.19s267.5-852,598.8-853.1,600.81,379.34,601.58,849.16"/><path class="s" d="M837.6,1489.29c.75,459.61-261.68,833.49-585.78,834.56s-587.75-371.09-588.5-830.7S-75,659.66,249.1,658.59s587.75,371.09,588.5,830.7"/><path class="t" d="M824.56,1489.33c.73,449.4-255.87,815-572.77,816S-322.9,1942.5-323.63,1493.1s255.87-815,572.77-816,574.69,362.84,575.43,812.24"/><path class="v" d="M811.51,1489.38c.72,439.18-250.05,796.45-559.75,797.46s-561.63-354.6-562.35-793.78S-60.54,696.61,249.16,695.6s561.63,354.6,562.35,793.78"/><path class="w" d="M798.46,1489.42c.7,429-244.24,777.93-546.73,778.92S-296.84,1922-297.54,1493-53.3,715.09,249.19,714.1s548.57,346.35,549.27,775.32"/><path class="ab" d="M785.41,1489.46c.68,418.76-238.42,759.4-533.71,760.37S-283.81,1911.73-284.49,1493-46.07,733.57,249.22,732.6s535.51,338.1,536.19,756.86"/><path class="y" d="M772.37,1489.51c.67,408.54-232.61,740.88-520.7,741.83s-522.45-329.86-523.11-738.4,232.61-740.88,520.7-741.83S771.7,1081,772.37,1489.51"/><path class="ac" d="M759.32,1489.55c.65,398.33-226.79,722.36-507.68,723.28s-509.39-321.61-510-719.94S-31.61,770.53,249.28,769.61s509.39,321.61,510,719.94"/><path class="ag" d="M746.27,1489.59c.63,388.12-221,703.84-494.66,704.74s-496.32-313.36-497-701.48S-24.37,789,249.31,788.11s496.32,313.36,497,701.48"/><path class="ah" d="M733.22,1489.63c.62,377.9-215.16,685.32-481.64,686.19s-483.26-305.12-483.88-683S-17.14,807.49,249.34,806.61s483.26,305.12,483.88,683"/><path class="am" d="M720.42,1489.68c.6,367.69-209.34,666.79-468.63,667.64s-470.2-296.87-470.8-664.56S-9.67,826,249.61,825.12s470.2,296.87,470.8,664.56"/><path class="aj" d="M707.37,1489.72c.58,357.47-203.53,648.27-455.61,649.1S-205.38,1850.19-206,1492.72-2.44,844.45,249.64,843.62s457.14,288.63,457.72,646.1"/><path class="ak" d="M694.32,1490.1c.57,347.26-197.71,629.75-442.59,630.55S-192.35,1840.28-192.92,1493,4.8,863.27,249.67,862.46s444.08,280.38,444.65,627.64"/><path class="an" d="M681.27,1489.81c.55,337-191.9,611.23-429.57,612s-431-272.13-431.57-609.18S12,881.41,249.71,880.63s431,272.13,431.57,609.18"/><path class="ao" d="M668.23,1489.85c.53,326.83-186.08,592.71-416.56,593.46s-418-263.89-418.49-590.72S19.26,899.88,249.74,899.13s418,263.89,418.49,590.72"/><path class="ap" d="M654.94,1489.89c.52,316.62-180.27,574.18-403.54,574.92S-153.5,1809.17-154,1492.55,26.25,918.36,249.52,917.63s404.9,255.64,405.41,572.26"/><path class="aq" d="M641.89,1489.93c.5,306.41-174.45,555.66-390.52,556.37S-140.47,1798.91-141,1492.5,33.49,936.84,249.55,936.13s391.84,247.39,392.34,553.8"/></g><g class="ar"><path class="f" d="M946.42,1488.93c.89,544.79-310.18,988-694.35,989.23S-444.61,2038.3-445.5,1493.5s310.18-988,694.35-989.23,696.68,439.86,697.57,984.66"/><path class="k" d="M935.2,1489C936.07,2025,630,2461,252,2462.24s-685.45-432.77-686.32-968.78,305.18-972,683.15-973.27S934.32,953,935.2,1489"/><path class="h" d="M924.21,1489.35c.86,527.22-300.17,956.1-672,957.32S-421.95,2021-422.81,1493.77s300.17-956.1,672-957.32,674.21,425.68,675.07,952.89"/><path class="i" d="M912.75,1489c.85,518.43-295.17,940.16-660.75,941.36s-663-418.58-663.82-937S-116.65,553.23,248.93,552s663,418.58,663.82,937"/><path class="i" d="M901.52,1489.08c.83,509.64-290.17,924.23-649.55,925.41S-399.77,2003-400.6,1493.36-110.43,569.13,249,568s651.74,411.49,652.57,921.13"/><path class="l" d="M890.54,1489.12c.82,500.86-285.16,908.29-638.35,909.45s-640.5-404.39-641.32-905.25S-104,585,249.22,583.87s640.5,404.39,641.32,905.25"/><path class="q" d="M879.31,1489.16c.8,492.07-280.16,892.36-627.15,893.5s-629.26-397.3-630.07-889.37,280.16-892.36,627.15-893.5,629.26,397.3,630.07,889.37"/><path class="r" d="M867.85,1489.19c.79,483.28-275.16,876.42-616,877.54s-618-390.2-618.81-873.49S-91.76,616.83,249,615.71s618,390.2,618.81,873.49"/><path class="o" d="M856.62,1489.23c.77,474.5-270.16,860.49-604.76,861.59s-606.79-383.11-607.56-857.6S-85.54,632.72,249.06,631.62s606.79,383.11,607.56,857.6"/><path class="s" d="M845.64,1489.61c.76,465.71-265.15,844.55-593.56,845.63s-595.55-376-596.31-841.72S-79.08,649,249.32,647.88s595.55,376,596.31,841.72"/><path class="t" d="M834.17,1489.3C834.92,1946.22,574,2317.92,251.81,2319s-584.31-368.92-585.06-825.84S-73.1,664.52,249.11,663.46s584.31,368.92,585.06,825.84"/><path class="aa" d="M822.95,1489.34c.73,448.14-255.15,812.68-571.16,813.72s-573.08-361.82-573.81-810S-66.88,680.42,249.14,679.38s573.08,361.82,573.81,810"/><path class="w" d="M812,1489.38c.72,439.35-250.14,796.75-560,797.76s-561.84-354.73-562.56-794.08,250.14-796.75,560-797.76S811.24,1050,812,1489.38"/><path class="ab" d="M800.5,1489.41c.7,430.56-245.14,780.81-548.76,781.81s-550.6-347.64-551.31-778.2S-54.43,712.21,249.19,711.22s550.6,347.64,551.31,778.2"/><path class="y" d="M789.27,1489.45c.69,421.77-240.14,764.88-537.56,765.85S-287.66,1914.76-288.35,1493-48.21,728.11,249.21,727.13s539.37,340.54,540.06,762.32"/><path class="ac" d="M778,1489.49c.67,413-235.14,748.94-526.36,749.9S-276.45,1905.94-277.12,1493-42,744,249.24,743.05,777.37,1076.5,778,1489.49"/><path class="ag" d="M767.06,1489.52c.66,404.2-230.13,733-515.16,733.94S-265,1897.12-265.66,1492.91-35.52,759.91,249.51,759s516.89,326.35,517.55,730.55"/><path class="ae" d="M755.59,1489.56c.65,395.41-225.13,717.07-504,718S-254,1888.29-254.67,1492.88s225.13-717.07,504-718,505.66,319.26,506.3,714.67"/><path class="aj" d="M744.37,1489.6c.63,386.63-220.13,701.14-492.76,702s-494.42-312.16-495.05-698.79,220.13-701.14,492.76-702S743.74,1103,744.37,1489.6"/><path class="aj" d="M733.38,1489.63c.62,377.84-215.12,685.2-481.57,686.08S-231.36,1870.64-232,1492.8-16.86,807.6,249.58,806.73s483.18,305.07,483.8,682.91"/><path class="ak" d="M721.92,1489.67c.6,369.05-210.12,669.27-470.37,670.12s-471.95-298-472.55-667S-10.88,823.5,249.37,822.65s471.95,298,472.55,667"/><path class="an" d="M710.69,1489.71C711.28,1850,505.58,2143,251.53,2143.87S-209.18,1853-209.77,1492.73-4.65,839.4,249.4,838.56s460.71,290.88,461.3,651.14"/><path class="ao" d="M699.47,1489.74c.57,351.48-200.12,637.4-448,638.21s-449.47-283.78-450-635.26,200.12-637.4,448-638.21,449.47,283.78,450,635.26"/><path class="as" d="M688.48,1489.78C689,1832.47,493.37,2111.24,251.72,2112s-438.24-276.69-438.8-619.38S8,871.19,249.69,870.4s438.24,276.69,438.8,619.38"/><path class="at" d="M677,1489.82c.55,333.9-190.11,605.53-425.57,606.3s-427-269.59-427.54-603.5S14,887.09,249.47,886.32s427,269.59,427.54,603.5"/><path class="au" d="M665.79,1489.86c.53,325.12-185.11,589.59-414.37,590.35s-415.76-262.5-416.29-587.62S20.24,903,249.5,902.24s415.76,262.5,416.29,587.62"/><path class="av" d="M654.81,1490.23c.52,316.33-180.1,573.66-403.17,574.39s-404.53-255.41-405-571.74S26.7,919.23,249.77,918.5s404.53,255.41,405,571.74"/><path class="aw" d="M643.34,1489.93c.5,307.54-175.1,557.72-392,558.44s-393.29-248.31-393.79-555.86,175.1-557.72,392-558.43,393.29,248.31,393.79,555.85"/></g><g class="ax"><path class="f" d="M937.81,1489c.88,538.05-306.34,975.75-685.76,977S-436,2031.53-436.89,1493.48s306.34-975.75,685.76-977S936.94,950.91,937.81,1489"/><path class="k" d="M928,1489c.87,530.37-302,961.81-676,963s-678.24-428.22-679.1-958.59,302-961.81,676-963S927.13,958.63,928,1489"/><path class="h" d="M918.42,1489.37c.85,522.68-297.59,947.87-666.17,949.08s-668.41-422-669.26-944.69,297.59-947.87,666.17-949.08,668.41,422,669.26,944.69"/><path class="i" d="M908.36,1489.06c.84,515-293.21,933.93-656.37,935.12s-658.58-415.81-659.42-930.8,293.21-933.93,656.37-935.12,658.58,415.81,659.42,930.8"/><path class="i" d="M898.54,1489.09c.83,507.31-288.84,920-646.57,921.16s-648.75-409.6-649.58-916.91,288.84-920,646.57-921.16,648.75,409.6,649.58,916.91"/><path class="l" d="M889,1489.12c.82,499.62-284.46,906-636.78,907.21s-638.92-403.39-639.73-903,284.46-906,636.78-907.21S888.14,989.5,889,1489.12"/><path class="q" d="M878.9,1489.16c.8,491.93-280.08,892.11-627,893.25S-377.17,1985.22-378,1493.28-97.89,601.17,249,600,878.09,997.22,878.9,1489.16"/><path class="r" d="M869.32,1489.19c.79,484.25-275.71,878.17-617.19,879.29s-619.26-391-620-875.23S-92.21,615.08,249.27,614s619.26,391,620,875.23"/><path class="o" d="M859.26,1489.22c.78,476.56-271.33,864.23-607.39,865.34s-609.43-384.78-610.21-861.34S-87,629,249.05,627.88s609.43,384.78,610.21,861.34"/><path class="s" d="M849.44,1489.25c.77,468.88-267,850.29-597.59,851.38s-599.6-378.57-600.37-847.44,267-850.29,597.59-851.38,599.6,378.57,600.37,847.44"/><path class="t" d="M839.86,1489.63c.75,461.19-262.58,836.35-587.8,837.42S-337.7,1954.68-338.46,1493.5s262.58-836.35,587.8-837.42,589.77,372.36,590.52,833.55"/><path class="ay" d="M829.8,1489.32c.74,453.5-258.2,822.41-578,823.46s-579.94-366.16-580.68-819.66,258.2-822.41,578-823.46,579.94,366.16,580.68,819.66"/><path class="w" d="M820,1489.35c.73,445.82-253.83,808.47-568.2,809.51s-570.11-360-570.84-805.77,253.83-808.47,568.2-809.51,570.11,360,570.84,805.77"/><path class="ab" d="M810.4,1489.38C811.12,1927.51,561,2283.92,252,2284.93s-560.28-353.75-561-791.87S-59.55,698.52,249.41,697.51s560.28,353.75,561,791.87"/><path class="y" d="M800.34,1489.41C801,1919.86,555.27,2270,251.73,2271s-550.45-347.54-551.16-778,245.07-780.6,548.61-781.59,550.45,347.54,551.16,778"/><path class="ac" d="M790.76,1489.45c.69,422.76-240.7,766.66-538.81,767.64S-288.67,1915.75-289.36,1493s240.7-766.66,538.81-767.64,540.62,341.33,541.31,764.09"/><path class="az" d="M780.7,1489.48c.68,415.07-236.32,752.72-529,753.68S-279.1,1908-279.78,1493s236.32-752.72,529-753.68S780,1074.41,780.7,1489.48"/><path class="ah" d="M770.89,1489.51c.67,407.38-231.94,738.78-519.22,739.72s-521-328.92-521.63-736.3S-38,754.15,249.26,753.21s521,328.92,521.63,736.3"/><path class="aj" d="M761.31,1489.88c.65,399.7-227.57,724.84-509.42,725.76s-511.13-322.71-511.79-722.41S-32.33,768.4,249.52,767.47s511.13,322.71,511.79,722.41"/><path class="aj" d="M751.25,1489.57c.64,392-223.19,710.9-499.63,711.81s-501.3-316.51-501.94-708.52S-27.13,782,249.3,781.06s501.3,316.51,501.94,708.52"/><path class="ak" d="M741.43,1489.61c.63,384.32-218.82,697-489.83,697.85s-491.48-310.3-492.1-694.63S-21.69,795.87,249.32,795s491.48,310.3,492.1,694.63"/><path class="an" d="M731.85,1489.64c.61,376.64-214.44,683-480,683.89s-481.65-304.1-482.26-680.73,214.44-683,480-683.89S731.23,1113,731.85,1489.64"/><path class="ao" d="M721.79,1489.67c.6,369-210.06,669.08-470.24,669.94s-471.82-297.89-472.42-666.84S-10.8,823.68,249.37,822.83s471.82,297.89,472.42,666.84"/><path class="as" d="M712.21,1489.7c.59,361.26-205.69,655.14-460.44,656s-462-291.68-462.58-652.95,205.69-655.14,460.44-656,462,291.68,462.58,652.95"/><path class="aq" d="M702.15,1489.74c.58,353.58-201.31,641.2-450.64,642s-452.16-285.48-452.73-639.06S.08,851.5,249.42,850.68s452.16,285.48,452.73,639.06"/><path class="au" d="M692.33,1489.77c.56,345.89-196.93,627.26-440.85,628.07s-442.33-279.27-442.89-625.16S5.53,865.41,249.44,864.6s442.33,279.27,442.89,625.16"/><path class="av" d="M682.75,1490.14c.55,338.2-192.56,613.33-431,614.11S-180.8,1831.18-181.35,1493s192.56-613.33,431-614.11,432.5,273.07,433.05,611.27"/><path class="aw" d="M672.69,1489.83c.54,330.52-188.18,599.39-421.25,600.15s-422.67-266.86-423.21-597.38S16.41,893.22,249.48,892.45s422.67,266.86,423.21,597.38"/><path class="ba" d="M662.87,1489.87c.53,322.83-183.81,585.45-411.46,586.19S-161.42,1815.41-162,1492.57,21.86,907.13,249.51,906.38,662.35,1167,662.87,1489.87"/><path class="bb" d="M653.29,1489.9c.51,315.15-179.43,571.51-401.66,572.24s-403-254.45-403.52-569.59S27.54,921,249.77,920.3s403,254.45,403.52,569.59"/><path class="bc" d="M643.23,1489.93c.5,307.46-175.05,557.57-391.86,558.28S-141.81,1800-142.31,1492.51,32.74,934.94,249.55,934.23s393.18,248.24,393.68,555.7"/></g></g><g class="bd"><g class="be"><path class="f" d="M426.69,1488.74c1,592-337,1073.52-754.48,1074.89s-757-478-758-1069.93,337-1073.52,754.48-1074.89,757,478,758,1069.93"/><path class="g" d="M318.66,1489.09c.83,507.4-288.89,920.16-646.7,921.34s-648.87-409.68-649.7-917.08S-688.85,573.18-331,572s648.87,409.68,649.7,917.08"/><path class="h" d="M210.63,1489.45c.69,422.84-240.74,766.8-538.91,767.78S-869,1915.83-869.7,1493-629,726.19-330.79,725.21s540.73,341.4,541.42,764.23"/><path class="i" d="M102.83,1489.8c.55,338.27-192.59,613.44-431.13,614.23s-432.58-273.12-433.13-611.39S-568.84,879.2-330.3,878.41s432.58,273.12,433.13,611.39"/></g><g class="bf"><path class="f" d="M418.08,1488.76c1,585.23-333.2,1061.3-745.89,1062.65s-748.4-472.51-749.35-1057.75S-744,432.37-331.27,431s748.4,472.51,749.35,1057.75"/><path class="k" d="M368.24,1488.93c.89,546.21-311,990.55-696.16,991.81s-698.5-441-699.39-987.23S-716.33,503-331.15,501.7s698.5,441,699.39,987.23"/><path class="h" d="M318.64,1489.09c.83,507.2-288.78,919.79-646.44,921s-648.61-409.51-649.44-916.71,288.78-919.79,646.44-921,648.61,409.51,649.44,916.71"/><path class="i" d="M268.56,1489.26c.76,468.18-266.56,849-596.71,850.12s-598.72-378-599.48-846.2,266.56-849,596.71-850.12,598.72,378,599.48,846.2"/><path class="l" d="M219,1489.42c.7,429.17-244.35,778.29-547,779.28S-876.85,1922.19-877.55,1493s244.35-778.29,547-779.28S218.26,1060.25,219,1489.42"/><path class="m" d="M168.87,1489.58c.64,390.15-222.14,707.53-497.26,708.44S-827.32,1883-828,1492.86s222.14-707.53,497.26-708.44,498.93,315,499.57,705.16"/><path class="n" d="M119,1489.75c.57,351.14-199.92,636.78-447.53,637.59s-449-283.51-449.61-634.65S-578.19,855.91-330.58,855.1s449,283.51,449.61,634.65"/><path class="o" d="M69.43,1489.91c.51,312.12-177.71,566-397.81,566.75s-399.14-252-399.65-564.13,177.71-566,397.81-566.75,399.14,252,399.65,564.13"/></g><g class="bg"><path class="f" d="M409.71,1488.79c.94,578.49-329.37,1049.08-737.3,1050.42s-739.78-467.07-740.72-1045.57S-738.94,444.57-331,443.23,408.77,910.3,409.71,1488.79"/><path class="k" d="M377.34,1488.9c.9,553.34-315,1003.47-705.24,1004.75s-707.61-446.77-708.52-1000.11,315-1003.47,705.24-1004.75S376.44,935.56,377.34,1488.9"/><path class="h" d="M345.21,1489c.86,528.19-300.73,957.86-673.19,959.08s-675.45-426.46-676.31-954.65S-703.56,535.58-331.1,534.36,344.35,960.82,345.21,1489"/><path class="i" d="M313.32,1489.11c.82,503-286.41,912.24-641.13,913.41s-643.29-406.15-644.11-909.19,286.41-912.24,641.13-913.41S312.5,986.07,313.32,1489.11"/><path class="i" d="M280.95,1489.21C281.73,1967.1,8.86,2355.85-328.13,2357S-939.25,1971.11-940,1493.22-667.94,626.59-331,625.49s611.12,385.84,611.9,863.73"/><path class="l" d="M248.82,1489.32c.74,452.73-257.76,821-577,822.07s-579-365.54-579.7-818.27,257.76-821,577-822.07,579,365.54,579.7,818.27"/><path class="q" d="M216.93,1489.43c.7,427.58-243.44,775.41-545,776.4S-874.83,1920.59-875.52,1493s243.44-775.41,545-776.4,546.79,345.23,547.49,772.81"/><path class="r" d="M184.56,1489.53c.66,402.43-229.12,729.79-512.91,730.73S-843,1895.34-843.63,1492.91s229.12-729.79,512.91-730.73S183.9,1087.1,184.56,1489.53"/><path class="o" d="M152.43,1489.64c.62,377.28-214.8,684.18-480.85,685.06S-810.89,1870.08-811.5,1492.8s214.8-684.18,480.85-685.06,482.46,304.61,483.08,681.89"/><path class="s" d="M120.54,1489.74c.57,352.13-200.48,638.57-448.79,639.39s-450.3-284.31-450.88-636.43,200.48-638.57,448.79-639.39S120,1137.62,120.54,1489.74"/><path class="t" d="M88.16,1489.85c.53,327-186.16,593-416.74,593.72s-418.14-264-418.67-591,186.16-593,416.74-593.72,418.14,264,418.67,591"/></g><g class="bh"><path class="f" d="M401.1,1488.82C402,2060.57,75.57,2525.68-327.61,2527s-731.16-461.63-732.09-1033.38S-734.17,456.76-331,455.44,400.17,917.07,401.1,1488.82"/><path class="k" d="M377.3,1488.9c.9,553.31-315,1003.41-705.2,1004.69s-707.57-446.74-708.48-1000,315-1003.41,705.2-1004.69S376.4,935.59,377.3,1488.9"/><path class="h" d="M353.74,1489c.87,534.86-304.53,970-681.7,971.2s-684-431.85-684.86-966.71,304.53-970,681.7-971.2,684,431.85,684.86,966.71"/><path class="i" d="M330.18,1489.05c.84,516.42-294,936.52-658.19,937.71s-660.4-417-661.24-933.38,294-936.51,658.19-937.71,660.4,417,661.24,933.38"/><path class="i" d="M306.62,1489.13c.81,498-283.52,903.07-634.68,904.22s-636.82-402.07-637.63-900S-682.17,590.24-331,589.09s636.82,402.07,637.63,900"/><path class="l" d="M283.06,1489.21c.78,479.53-273,869.62-611.18,870.73s-613.23-387.18-614-866.71S-669.11,623.61-331,622.5s613.23,387.18,614,866.71"/><path class="n" d="M259.49,1489.29c.75,461.09-262.52,836.17-587.67,837.24s-589.64-372.28-590.4-833.37S-656,657-330.9,655.91s589.64,372.28,590.4,833.37"/><path class="r" d="M236.17,1489.36c.72,442.65-252,802.73-564.16,803.75s-566.06-357.39-566.78-800,252-802.73,564.16-803.75,566.06,357.39,566.78,800"/><path class="o" d="M212.61,1489.44c.69,424.2-241.52,769.28-540.66,770.26S-870.52,1917.2-871.21,1493s241.52-769.28,540.66-770.26,542.47,342.5,543.17,766.7"/><path class="s" d="M189.05,1489.52c.66,405.76-231,735.83-517.15,736.77S-847,1898.68-847.65,1492.92s231-735.83,517.15-736.77,518.89,327.61,519.55,733.37"/><path class="t" d="M165.25,1489.59c.63,387.32-220.52,702.39-493.64,703.28s-495.3-312.72-495.93-700,220.52-702.39,493.64-703.28,495.3,312.72,495.93,700"/><path class="v" d="M141.69,1489.67c.6,368.87-210,668.94-470.14,669.79s-471.72-297.83-472.32-666.7,210-668.94,470.14-669.79,471.72,297.83,472.32,666.7"/><path class="w" d="M118.13,1489.75c.57,350.43-199.52,635.49-446.63,636.3s-448.13-282.94-448.7-633.36,199.52-635.49,446.63-636.3,448.13,282.94,448.7,633.36"/><path class="x" d="M94.57,1489.83c.54,332-189,602-423.12,602.81s-424.54-268-425.09-600,189-602,423.12-602.81,424.54,268,425.09,600"/><path class="y" d="M71,1489.9c.51,313.54-178.52,568.6-399.62,569.32s-401-253.15-401.47-566.69,178.52-568.6,399.62-569.32S70.49,1176.36,71,1489.9"/></g><g class="bi"><path class="f" d="M392.25,1488.85c.92,565-321.69,1024.63-720.12,1025.94s-722.54-456.19-723.46-1021.2S-729.64,469-331.21,467.65s722.54,456.19,723.46,1021.2"/><path class="k" d="M373.74,1488.91c.9,550.52-313.44,998.36-701.66,999.64s-704-444.49-704.91-995,313.44-998.36,701.66-999.64,704,444.49,704.91,995"/><path class="h" d="M355.24,1489C356.11,2025,50,2461.06-328,2462.3s-685.49-432.8-686.36-968.83,305.19-972.09,683.19-973.33S354.36,952.93,355.24,1489"/><path class="i" d="M337,1489.37c.85,521.55-296.95,945.82-664.73,947s-667-421.1-667.81-942.65,296.95-945.82,664.73-947,667,421.1,667.81,942.65"/><path class="i" d="M318.22,1489.09c.83,507.06-288.7,919.54-646.26,920.72s-648.43-409.4-649.26-916.46S-688.6,573.8-331,572.63,317.39,982,318.22,1489.09"/><path class="l" d="M299.71,1489.15c.8,492.57-280.45,893.27-627.8,894.41S-958,1985.86-958.79,1493.29-678.34,600-331,598.87s629.91,397.7,630.71,890.28"/><path class="n" d="M281.21,1489.21c.78,478.09-272.2,867-609.33,868.1s-611.38-386-612.16-864.09,272.2-867,609.33-868.1,611.38,386,612.16,864.09"/><path class="r" d="M262.7,1489.27c.76,463.6-264,840.72-590.87,841.8S-921,1956.76-921.78,1493.16s264-840.72,590.87-841.8,592.85,374.31,593.61,837.91"/><path class="o" d="M244.43,1489.68c.73,449.11-255.7,814.45-572.4,815.49S-902.3,1942.56-903,1493.44-647.33,679-330.63,678s574.33,362.61,575.06,811.72"/><path class="s" d="M225.69,1489.4c.71,434.62-247.45,788.18-553.94,789.19S-884.05,1927.67-884.76,1493s247.45-788.18,553.94-789.19S225,1054.77,225.69,1489.4"/><path class="t" d="M207.18,1489.46c.69,420.14-239.21,761.91-535.47,762.88s-537.27-339.22-538-759.35S-627,731.07-330.78,730.1s537.27,339.22,538,759.35"/><path class="aa" d="M188.67,1489.52c.66,405.65-231,735.63-517,736.57s-518.75-327.52-519.41-733.17,231-735.63,517-736.57S188,1083.87,188.67,1489.52"/><path class="w" d="M170.16,1489.58c.64,391.16-222.71,709.36-498.54,710.27s-500.22-315.82-500.86-707S-606.53,783.5-330.7,782.59s500.22,315.82,500.86,707"/><path class="ab" d="M151.9,1489.64c.62,376.67-214.46,683.09-480.08,684s-481.69-304.13-482.31-680.8,214.46-683.09,480.08-684S151.28,1113,151.9,1489.64"/><path class="y" d="M133.15,1489.7c.59,362.19-206.21,656.82-461.62,657.65s-463.17-292.43-463.76-654.62S-586,835.92-330.61,835.08s463.17,292.43,463.76,654.62"/><path class="ac" d="M114.88,1489.76c.57,347.7-198,630.54-443.15,631.35s-444.64-280.73-445.21-628.43,198-630.54,443.15-631.35,444.64,280.73,445.21,628.43"/><path class="ad" d="M96.13,1489.82c.54,333.21-189.72,604.27-424.69,605s-426.11-269-426.66-602.25,189.72-604.27,424.69-605,426.11,269,426.66,602.25"/><path class="ae" d="M77.63,1489.88c.52,318.72-181.47,578-406.22,578.74s-407.59-257.34-408.11-576.06,181.47-578,406.22-578.74S77.1,1171.16,77.63,1489.88"/></g><g class="bj"><path class="f" d="M383.64,1488.88c.91,558.27-317.85,1012.41-711.53,1013.7s-713.92-450.75-714.83-1009S-724.87,481.15-331.19,479.86s713.92,450.75,714.83,1009"/><path class="k" d="M368.38,1488.93c.89,546.13-310.94,990.4-696.06,991.67s-698.4-440.95-699.29-987.08S-716,503.11-330.91,501.84s698.4,440.95,699.29,987.08"/><path class="h" d="M352.87,1489.32c.87,534-304,968.39-680.59,969.63s-682.88-431.15-683.75-965.15,304-968.39,680.59-969.63S352,955.32,352.87,1489.32"/><path class="i" d="M337.13,1489C338,2010.89,40,2435.41-328,2436.62s-667.36-421.35-668.21-943.21S-699.08,547-331.08,545.82,336.28,967.17,337.13,1489"/><path class="i" d="M321.63,1489.08c.83,509.73-290.21,924.37-649.66,925.55s-651.84-411.55-652.67-921.28S-690.49,569-331,567.8s651.84,411.55,652.67,921.28"/><path class="l" d="M306.12,1489.13c.81,497.59-283.3,902.37-634.19,903.52S-964.39,1990.9-965.2,1493.31-681.9,590.94-331,589.79s636.32,401.75,637.13,899.34"/><path class="n" d="M290.62,1489.18c.79,485.45-276.39,880.36-618.72,881.48s-620.8-392-621.59-877.41S-673.3,612.9-331,611.78s620.8,392,621.59,877.41"/><path class="r" d="M275.36,1489.23c.77,473.32-269.48,858.35-603.25,859.44S-933.18,1966.52-934,1493.2-664.47,634.86-330.7,633.76s605.28,382.16,606.05,855.47"/><path class="o" d="M259.85,1489.28c.75,461.18-262.57,836.34-587.78,837.41s-589.76-372.36-590.51-833.54,262.57-836.34,587.78-837.41S259.1,1028.1,259.85,1489.28"/><path class="s" d="M244.11,1489.34c.73,449-255.66,814.33-572.32,815.37s-574.24-362.56-575-811.6,255.66-814.33,572.32-815.37,574.24,362.56,575,811.6"/><path class="t" d="M228.6,1489.39c.71,436.91-248.75,792.32-556.85,793.33S-887,1930-887.68,1493.05s248.75-792.32,556.85-793.33,558.72,352.76,559.43,789.67"/><path class="v" d="M213.1,1489.44c.69,424.77-241.85,770.31-541.38,771.3s-543.2-343-543.89-767.73,241.85-770.31,541.38-771.3,543.2,343,543.89,767.73"/><path class="w" d="M197.59,1489.49c.67,412.63-234.94,748.3-525.91,749.26S-856,1905.59-856.67,1492.95s234.94-748.3,525.91-749.26,527.68,333.16,528.35,745.8"/><path class="ab" d="M182.33,1489.54c.65,400.5-228,726.29-510.44,727.22S-840.27,1893.4-840.93,1492.9s228-726.29,510.44-727.22S181.68,1089,182.33,1489.54"/><path class="y" d="M166.83,1489.59c.63,388.36-221.12,704.29-495,705.18s-496.64-313.56-497.27-701.93,221.12-704.29,495-705.18,496.64,313.56,497.27,701.93"/><path class="ac" d="M151.08,1489.64c.61,376.23-214.21,682.28-479.51,683.15s-481.12-303.76-481.73-680S-596,810.52-330.65,809.65s481.12,303.76,481.73,680"/><path class="ag" d="M135.58,1489.69c.59,364.09-207.3,660.27-464,661.11s-465.6-294-466.19-658.06,207.3-660.27,464-661.11,465.6,294,466.19,658.06"/><path class="ah" d="M120.07,1489.74c.57,352-200.39,638.26-448.57,639.07s-450.08-284.17-450.65-636.12,200.39-638.26,448.57-639.07,450.08,284.17,450.65,636.12"/><path class="ai" d="M104.57,1489.79c.55,339.82-193.48,616.25-433.1,617s-434.56-274.37-435.11-614.19,193.48-616.25,433.1-617S104,1150,104.57,1489.79"/><path class="aj" d="M89.31,1489.84c.54,327.68-186.57,594.24-417.64,595s-419-264.57-419.58-592.25,186.57-594.24,417.64-595,419,264.57,419.58,592.25"/><path class="ak" d="M73.8,1489.9c.52,315.54-179.66,572.23-402.17,573s-403.52-254.77-404-570.31,179.66-572.23,402.17-573,403.52,254.77,404,570.31"/></g><g class="bk"><path class="f" d="M375,1488.91c.9,551.53-314,1000.19-702.94,1001.47s-705.3-445.31-706.2-996.84,314-1000.19,702.94-1001.47S374.13,937.37,375,1488.91"/><path class="k" d="M362,1488.95c.88,541.32-308.2,981.67-689.92,982.92s-692.24-437.06-693.13-978.38,308.2-981.67,689.92-982.92S361.1,947.63,362,1488.95"/><path class="h" d="M348.94,1489c.87,531.11-302.39,963.15-676.91,964.38s-679.18-428.81-680-959.92S-705.63,530.3-331.11,529.07s679.18,428.81,680,959.92"/><path class="i" d="M335.89,1489c.85,520.89-296.57,944.62-663.89,945.83S-994.12,2014.3-995,1493.4-698.4,548.78-331.08,547.57,335,968.14,335.89,1489"/><path class="i" d="M322.84,1489.08c.83,510.68-290.76,926.1-650.87,927.28s-653.06-412.32-653.89-923S-691.16,567.26-331,566.08,322,978.4,322.84,1489.08"/><path class="l" d="M310,1489.12c.82,500.46-284.94,907.58-637.85,908.74s-640-404.07-640.81-904.54,284.94-907.58,637.85-908.74,640,404.07,640.81,904.54"/><path class="q" d="M297,1489.16c.8,490.25-279.13,889.06-624.84,890.19s-626.94-395.83-627.74-886.08,279.13-889.06,624.84-890.19S296.19,998.91,297,1489.16"/><path class="r" d="M283.94,1489.21c.78,480-273.31,870.54-611.82,871.65s-613.87-387.58-614.66-867.62S-669.23,622.7-330.72,621.59s613.87,387.58,614.66,867.62"/><path class="o" d="M270.89,1489.25c.77,469.82-267.5,852-598.8,853.1S-928.72,1963-929.49,1493.19s267.5-852,598.8-853.1,600.81,379.34,601.58,849.16"/><path class="s" d="M257.6,1489.29c.75,459.61-261.68,833.49-585.78,834.56s-587.75-371.09-588.5-830.7S-655,659.66-330.9,658.59s587.75,371.09,588.5,830.7"/><path class="t" d="M244.56,1489.33c.73,449.4-255.87,815-572.77,816S-902.9,1942.5-903.63,1493.1s255.87-815,572.77-816,574.69,362.84,575.43,812.24"/><path class="v" d="M231.51,1489.38c.72,439.18-250.05,796.45-559.75,797.46s-561.63-354.6-562.35-793.78S-640.54,696.61-330.84,695.6s561.63,354.6,562.35,793.78"/><path class="w" d="M218.46,1489.42c.7,429-244.24,777.93-546.73,778.92S-876.84,1922-877.54,1493-633.3,715.09-330.81,714.1s548.57,346.35,549.27,775.32"/><path class="ab" d="M205.41,1489.46c.68,418.76-238.42,759.4-533.71,760.37S-863.81,1911.73-864.49,1493s238.42-759.4,533.71-760.37,535.51,338.1,536.19,756.86"/><path class="y" d="M192.37,1489.51C193,1898-40.24,2230.39-328.33,2231.33s-522.45-329.86-523.11-738.4,232.61-740.88,520.7-741.83S191.7,1081,192.37,1489.51"/><path class="ac" d="M179.32,1489.55c.65,398.33-226.79,722.36-507.68,723.28s-509.39-321.61-510-719.94,226.79-722.36,507.68-723.28,509.39,321.61,510,719.94"/><path class="ag" d="M166.27,1489.59c.63,388.12-221,703.84-494.66,704.74s-496.32-313.36-497-701.48,221-703.84,494.66-704.74,496.32,313.36,497,701.48"/><path class="ah" d="M153.22,1489.63c.62,377.9-215.16,685.32-481.64,686.19s-483.26-305.12-483.88-683,215.16-685.32,481.64-686.19,483.26,305.12,483.88,683"/><path class="am" d="M140.42,1489.68c.6,367.69-209.34,666.79-468.63,667.64s-470.2-296.87-470.8-664.56S-589.67,826-330.39,825.12s470.2,296.87,470.8,664.56"/><path class="aj" d="M127.37,1489.72C128,1847.19-76.16,2138-328.24,2138.82S-785.38,1850.19-786,1492.72s203.53-648.27,455.61-649.1,457.14,288.63,457.72,646.1"/><path class="ak" d="M114.32,1490.1c.57,347.26-197.71,629.75-442.59,630.55S-772.35,1840.28-772.92,1493-575.2,863.27-330.33,862.46s444.08,280.38,444.65,627.64"/><path class="an" d="M101.27,1489.81c.55,337-191.9,611.23-429.57,612s-431-272.13-431.57-609.18,191.9-611.23,429.57-612,431,272.13,431.57,609.18"/><path class="ao" d="M88.23,1489.85c.53,326.83-186.08,592.71-416.56,593.46s-418-263.89-418.49-590.72,186.08-592.71,416.56-593.46S87.69,1163,88.23,1489.85"/><path class="ap" d="M74.94,1489.89c.52,316.62-180.27,574.18-403.54,574.92S-733.5,1809.17-734,1492.55s180.27-574.18,403.54-574.92,404.9,255.64,405.41,572.26"/><path class="aq" d="M61.89,1489.93c.5,306.41-174.45,555.66-390.52,556.37S-720.47,1798.91-721,1492.5s174.45-555.66,390.52-556.37,391.84,247.39,392.34,553.8"/></g><g class="bl"><path class="f" d="M366.42,1488.93c.89,544.79-310.18,988-694.35,989.23s-696.68-439.86-697.57-984.66,310.18-988,694.35-989.23,696.68,439.86,697.57,984.66"/><path class="k" d="M355.2,1489C356.07,2025,50,2461-328,2462.24s-685.45-432.77-686.32-968.78,305.18-972,683.15-973.27S354.32,953,355.2,1489"/><path class="h" d="M344.21,1489.35c.86,527.22-300.17,956.1-672,957.32s-674.21-425.68-675.07-952.89,300.17-956.1,672-957.32,674.21,425.68,675.07,952.89"/><path class="i" d="M332.75,1489c.85,518.43-295.17,940.16-660.75,941.36s-663-418.58-663.82-937S-696.65,553.23-331.07,552s663,418.58,663.82,937"/><path class="i" d="M321.52,1489.08c.83,509.64-290.17,924.23-649.55,925.41S-979.77,2003-980.6,1493.36-690.43,569.13-331,568s651.74,411.49,652.57,921.13"/><path class="l" d="M310.54,1489.12c.82,500.86-285.16,908.29-638.35,909.45s-640.5-404.39-641.32-905.25S-684,585-330.78,583.87s640.5,404.39,641.32,905.25"/><path class="q" d="M299.31,1489.16c.8,492.07-280.16,892.36-627.15,893.5s-629.26-397.3-630.07-889.37,280.16-892.36,627.15-893.5,629.26,397.3,630.07,889.37"/><path class="r" d="M287.85,1489.19c.79,483.28-275.16,876.42-616,877.54s-618-390.2-618.81-873.49,275.16-876.42,616-877.54,618,390.2,618.81,873.49"/><path class="o" d="M276.62,1489.23c.77,474.5-270.16,860.49-604.76,861.59s-606.79-383.11-607.56-857.6,270.16-860.49,604.76-861.58,606.79,383.11,607.56,857.6"/><path class="s" d="M265.64,1489.61c.76,465.71-265.15,844.55-593.56,845.63s-595.55-376-596.31-841.72S-659.08,649-330.68,647.88s595.55,376,596.31,841.72"/><path class="t" d="M254.17,1489.3C254.92,1946.22-6,2317.92-328.19,2319s-584.31-368.92-585.06-825.84S-653.1,664.52-330.89,663.46s584.31,368.92,585.06,825.84"/><path class="aa" d="M242.95,1489.34c.73,448.14-255.15,812.68-571.16,813.72s-573.08-361.82-573.81-810,255.15-812.68,571.16-813.72,573.08,361.82,573.81,810"/><path class="w" d="M232,1489.38c.72,439.35-250.14,796.75-560,797.76s-561.84-354.73-562.56-794.08,250.14-796.75,560-797.76S231.24,1050,232,1489.38"/><path class="ab" d="M220.5,1489.41c.7,430.56-245.14,780.81-548.76,781.81s-550.6-347.64-551.31-778.2,245.14-780.81,548.76-781.81,550.6,347.64,551.31,778.2"/><path class="y" d="M209.27,1489.45c.69,421.77-240.14,764.88-537.56,765.85S-867.66,1914.76-868.35,1493s240.14-764.88,537.56-765.85,539.37,340.54,540.06,762.32"/><path class="ac" d="M198,1489.49c.67,413-235.14,748.94-526.36,749.9S-856.45,1905.94-857.12,1493-622,744-330.76,743.05,197.37,1076.5,198,1489.49"/><path class="ag" d="M187.06,1489.52c.66,404.2-230.13,733-515.16,733.94S-845,1897.12-845.66,1492.91s230.13-733,515.16-733.94,516.89,326.35,517.55,730.55"/><path class="ae" d="M175.59,1489.56c.65,395.41-225.13,717.07-504,718S-834,1888.29-834.67,1492.88s225.13-717.07,504-718,505.66,319.26,506.3,714.67"/><path class="aj" d="M164.37,1489.6c.63,386.63-220.13,701.14-492.76,702s-494.42-312.16-495.05-698.79,220.13-701.14,492.76-702S163.74,1103,164.37,1489.6"/><path class="aj" d="M153.38,1489.63c.62,377.84-215.12,685.2-481.57,686.08S-811.36,1870.64-812,1492.8s215.12-685.2,481.57-686.08,483.18,305.07,483.8,682.91"/><path class="ak" d="M141.92,1489.67c.6,369.05-210.12,669.27-470.37,670.12s-471.95-298-472.55-667S-590.88,823.5-330.63,822.65s471.95,298,472.55,667"/><path class="an" d="M130.69,1489.71C131.28,1850-74.42,2143-328.47,2143.87S-789.18,1853-789.77,1492.73-584.65,839.4-330.6,838.56s460.71,290.88,461.3,651.14"/><path class="ao" d="M119.47,1489.74c.57,351.48-200.12,637.4-448,638.21s-449.47-283.78-450-635.26,200.12-637.4,448-638.21,449.47,283.78,450,635.26"/><path class="as" d="M108.48,1489.78C109,1832.47-86.63,2111.24-328.28,2112s-438.24-276.69-438.8-619.38S-572,871.19-330.31,870.4s438.24,276.69,438.8,619.38"/><path class="at" d="M97,1489.82c.55,333.9-190.11,605.53-425.57,606.3s-427-269.59-427.54-603.5S-566,887.09-330.53,886.32s427,269.59,427.54,603.5"/><path class="au" d="M85.79,1489.86C86.32,1815-99.31,2079.45-328.58,2080.2s-415.76-262.5-416.29-587.62S-559.76,903-330.5,902.24s415.76,262.5,416.29,587.62"/><path class="av" d="M74.81,1490.23c.52,316.33-180.1,573.66-403.17,574.39s-404.53-255.41-405-571.74S-553.3,919.23-330.23,918.5s404.53,255.41,405,571.74"/><path class="aw" d="M63.34,1489.93c.5,307.54-175.1,557.72-392,558.44s-393.29-248.31-393.79-555.86,175.1-557.72,392-558.43S62.84,1182.39,63.34,1489.93"/></g><g class="bm"><path class="f" d="M357.81,1489c.88,538.05-306.34,975.75-685.76,977s-688.07-434.42-688.94-972.48,306.34-975.75,685.76-977S356.94,950.91,357.81,1489"/><path class="k" d="M348,1489c.87,530.37-302,961.81-676,963s-678.24-428.22-679.1-958.59,302-961.81,676-963S347.13,958.63,348,1489"/><path class="h" d="M338.42,1489.37c.85,522.68-297.59,947.87-666.17,949.08s-668.41-422-669.26-944.69,297.59-947.87,666.17-949.08,668.41,422,669.26,944.69"/><path class="i" d="M328.36,1489.06c.84,515-293.21,933.93-656.37,935.12s-658.58-415.81-659.42-930.8,293.21-933.93,656.37-935.12,658.58,415.81,659.42,930.8"/><path class="i" d="M318.54,1489.09c.83,507.31-288.84,920-646.57,921.16s-648.75-409.6-649.58-916.91,288.84-920,646.57-921.16,648.75,409.6,649.58,916.91"/><path class="l" d="M309,1489.12c.82,499.62-284.46,906-636.78,907.21s-638.92-403.39-639.73-903,284.46-906,636.78-907.21S308.14,989.5,309,1489.12"/><path class="q" d="M298.9,1489.16c.8,491.93-280.08,892.11-627,893.25S-957.17,1985.22-958,1493.28-677.89,601.17-331,600,298.09,997.22,298.9,1489.16"/><path class="r" d="M289.32,1489.19c.79,484.25-275.71,878.17-617.19,879.29s-619.26-391-620-875.23S-672.21,615.08-330.73,614s619.26,391,620,875.23"/><path class="o" d="M279.26,1489.22c.78,476.56-271.33,864.23-607.39,865.34s-609.43-384.78-610.21-861.34S-667,629-330.95,627.88s609.43,384.78,610.21,861.34"/><path class="s" d="M269.44,1489.25c.77,468.88-267,850.29-597.59,851.38s-599.6-378.57-600.37-847.44,267-850.29,597.59-851.38,599.6,378.57,600.37,847.44"/><path class="t" d="M259.86,1489.63C260.61,1950.81-2.72,2326-327.93,2327S-917.7,1954.68-918.46,1493.5s262.58-836.35,587.8-837.42,589.77,372.36,590.52,833.55"/><path class="ay" d="M249.8,1489.32c.74,453.5-258.2,822.41-578,823.46s-579.94-366.16-580.68-819.66,258.2-822.41,578-823.46,579.94,366.16,580.68,819.66"/><path class="w" d="M240,1489.35c.73,445.82-253.83,808.47-568.2,809.51s-570.11-360-570.84-805.77,253.83-808.47,568.2-809.51,570.11,360,570.84,805.77"/><path class="ab" d="M230.4,1489.38C231.12,1927.51-19,2283.92-328,2284.93s-560.28-353.75-561-791.87,249.45-794.54,558.41-795.55,560.28,353.75,561,791.87"/><path class="y" d="M220.34,1489.41C221,1919.86-24.73,2270-328.27,2271s-550.45-347.54-551.16-778,245.07-780.6,548.61-781.59,550.45,347.54,551.16,778"/><path class="ac" d="M210.76,1489.45c.69,422.76-240.7,766.66-538.81,767.64S-868.67,1915.75-869.36,1493s240.7-766.66,538.81-767.64,540.62,341.33,541.31,764.09"/><path class="az" d="M200.7,1489.48c.68,415.07-236.32,752.72-529,753.68S-859.1,1908-859.78,1493s236.32-752.72,529-753.68S200,1074.41,200.7,1489.48"/><path class="ah" d="M190.89,1489.51c.67,407.38-231.94,738.78-519.22,739.72s-521-328.92-521.63-736.3S-618,754.15-330.74,753.21s521,328.92,521.63,736.3"/><path class="aj" d="M181.31,1489.88c.65,399.7-227.57,724.84-509.42,725.76s-511.13-322.71-511.79-722.41S-612.33,768.4-330.48,767.47s511.13,322.71,511.79,722.41"/><path class="aj" d="M171.25,1489.57c.64,392-223.19,710.9-499.63,711.81s-501.3-316.51-501.94-708.52S-607.13,782-330.7,781.06s501.3,316.51,501.94,708.52"/><path class="ak" d="M161.43,1489.61c.63,384.32-218.82,697-489.83,697.85s-491.48-310.3-492.1-694.63,218.82-697,489.83-697.85,491.48,310.3,492.1,694.63"/><path class="an" d="M151.85,1489.64c.61,376.64-214.44,683-480,683.89s-481.65-304.1-482.26-680.73,214.44-683,480-683.89S151.23,1113,151.85,1489.64"/><path class="ao" d="M141.79,1489.67c.6,369-210.06,669.08-470.24,669.94s-471.82-297.89-472.42-666.84S-590.8,823.68-330.63,822.83s471.82,297.89,472.42,666.84"/><path class="as" d="M132.21,1489.7c.59,361.26-205.69,655.14-460.44,656s-462-291.68-462.58-652.95,205.69-655.14,460.44-656,462,291.68,462.58,652.95"/><path class="aq" d="M122.15,1489.74c.58,353.58-201.31,641.2-450.64,642s-452.16-285.48-452.73-639.06,201.31-641.2,450.64-642,452.16,285.48,452.73,639.06"/><path class="au" d="M112.33,1489.77C112.9,1835.66-84.6,2117-328.52,2117.83s-442.33-279.27-442.89-625.16S-574.47,865.41-330.56,864.6s442.33,279.27,442.89,625.16"/><path class="av" d="M102.75,1490.14c.55,338.2-192.56,613.33-431,614.11S-760.8,1831.18-761.35,1493s192.56-613.33,431-614.11,432.5,273.07,433.05,611.27"/><path class="aw" d="M92.69,1489.83c.54,330.52-188.18,599.39-421.25,600.15s-422.67-266.86-423.21-597.38,188.18-599.39,421.25-600.15S92.15,1159.31,92.69,1489.83"/><path class="ba" d="M82.87,1489.87c.53,322.83-183.81,585.45-411.46,586.19S-741.42,1815.41-742,1492.57s183.81-585.45,411.46-586.19S82.35,1167,82.87,1489.87"/><path class="bb" d="M73.29,1489.9c.51,315.15-179.43,571.51-401.66,572.24s-403-254.45-403.52-569.59S-552.46,921-330.23,920.3s403,254.45,403.52,569.59"/><path class="bc" d="M63.23,1489.93c.5,307.46-175.05,557.57-391.86,558.28S-721.81,1800-722.31,1492.51s175.05-557.57,391.86-558.28,393.18,248.24,393.68,555.7"/></g></g></svg>